<?xml version="1.0" encoding="UTF-8"?>
<svg id="Capa_1" data-name="Capa 1" xmlns="http://www.w3.org/2000/svg" viewBox="0 0 24 24.01">
  <defs>
    <style>
      .cls-1 {
        fill: #0f0f10;
        stroke-width: 0px;
      }
    </style>
  </defs>
  <path class="cls-1" d="M17.36,21.77c.25-1.14.04-2.23.04-2.23-.75,1.05-1.46,1.85-2.13,2.48-1.79.08-3.17-.13-3.17-.13,0,0,.79.8,1.71,1.26-1.21.76-2.05.84-2.05.84,5.3.13,8.51-3.37,8.51-3.37-.83.55-1.88.93-2.92,1.14M12.15,21.9s-1.09-.42-2.63-1.3c.04-.93.21-2.15.5-3.66,0,0-1.25,1.22-2.84,2.19-.92-.63-1.88-1.39-2.84-2.27,0,0,.46,1.43,1.34,3.03-.83.34-1.71.46-2.5.25,0,0,.92,1.18,3.84,1.68.79.97,1.79,1.77,2.92,2.02,0,0-.33-.38-.42-1.81.79,0,1.67-.04,2.63-.13M5.76,11.25c-1.29.04-2.3.17-3.09.29-.21-1.39-.25-2.4-.25-2.4-.63.97-1.04,1.94-1.29,2.82-.92.34-1.13.67-1.13.67.13.46.42.97.79,1.39-.13,2.1.54,3.45.54,3.45.17-.72.46-1.43.83-2.1,1.09.88,2.17,1.47,2.17,1.47-.5-.93-.88-1.98-1.17-2.99,1.25-1.56,2.59-2.61,2.59-2.61M2.8,6.24c.63-.59,1.38-1.26,2.25-1.89,0,0-.83,0-1.71.21.58-1.43,1.21-2.23,1.21-2.23,0,0-3.71,2.65-4.42,7.45,0,0,.29-.88,1.38-2.19.42.97.92,1.56.92,1.56,0-1.09.17-2.06.38-2.9M15.15,2.29c-1-.51-1.92-.84-2.8-1.09C13.48.22,14.48.01,14.48.01c-1.75-.08-3.3.25-4.59.76-1.92-.17-3.17.17-3.17.17.29.21.54.59.79,1.09-1.63,1.14-2.46,2.27-2.46,2.27.96-.51,2-.88,3.05-1.14.13.21.25.42.38.63.67,1.05,1.42,1.81,1.42,1.81.25-1.26.71-2.27,1.25-3.03,2.3-.34,4.01-.29,4.01-.29M23.37,7.84c-.63-1.39-1.5-2.44-2.42-3.2-.83-1.73-1.75-2.53-1.75-2.53.08.38,0,.84-.13,1.3-2.05-1.01-3.88-1.14-3.88-1.14,1.17.8,2.21,1.73,3.13,2.74-.83,1.35-1.92,2.53-1.92,2.53,1.46-.34,2.59-.46,3.55-.51,1.42,1.98,2.21,3.66,2.21,3.66.04-1.35-.08-2.53-.33-3.54,1.13.25,1.54.67,1.54.67M24,12.81c-.33.55-.88.97-1.54,1.22-.08-1.81-.38-3.37-.38-3.37-.54,1.47-1.13,2.78-1.67,3.91-1.92.25-3.8-.04-3.8-.04,1.04,1.22,1.84,1.98,2.46,2.48-.96,1.64-1.67,2.53-1.67,2.53,1.34-.29,2.42-.84,3.3-1.43.33.25.67.51.96.97,0,0,.54-.8.75-2.61,1.38-1.81,1.59-3.66,1.59-3.66M12.1,13.48h0c-.71,1.09-1.42,2.27-2.09,3.45,0,0-.5-1.77-.71-4.29-1.17-.38-2.38-.84-3.55-1.39,0,0,1.34-.67,3.51-1.52.04-1.3.25-2.74.63-4.12,0,0,.71,1.3,2,3.2,1.38-.46,2.88-.88,4.47-1.26,0,0-1.21,1.47-2.71,3.66.88,1.09,1.88,2.27,2.96,3.37.04,0-1.92-.38-4.51-1.09"/>
</svg>