<?xml version="1.0" encoding="UTF-8"?>
<svg id="Livello_1" data-name="Livello 1" xmlns="http://www.w3.org/2000/svg" version="1.1" viewBox="0 0 382 113.3">
  <defs>
    <style>
      .cls-1 {
        fill: #000;
      }

      .cls-1, .cls-2 {
        stroke-width: 0px;
      }

      .cls-2 {
        fill: #1ec33c;
      }
    </style>
  </defs>
  <path class="cls-1" d="M364,3.2h8v38.3h-8V3.2Z"/>
  <g>
    <g>
      <path class="cls-1" d="M381.9,74.8h-9.9v-9.9h-8v9.9h-9.9v8h9.9v9.9h8v-9.9h9.9v-8Z"/>
      <path class="cls-1" d="M332.9,59.1c2.4-1.1,5.2-.8,7.3.8,2.6,2,3.7,5.3,4.6,8.4,1.6,6.3,1.8,12.9.7,19.4-.3,1.9-1.4,4.1-3.5,4.3-1.6.2-3-1-3.1-2.5h0c-.4-4.3,1.2-8.7.2-13-.3-1.4-1.7-2.6-3.2-2.3-1.9.6-3.1,2.4-4.1,4-1.9,3.6-3,7.7-4.3,11.6-.9,2.8-2.2,5.8-5,7.3-4.5,2.4-10.8,1.9-14-2.3-2.8-3.8-4.6-8.1-7.2-12-.7-.9-1.6-2.2-2.9-1.7-1.3.3-1.6,1.8-1.6,3,.2,4.3,2.3,8.1,3,12.3.4,1.7-.7,4-2.7,3.7-1.9.2-3-1.6-3.7-3.1-2.8-6.9-4.4-14.6-2.8-22,.7-3.4,1.9-7,4.5-9.4s7.1-3,10-.6c4.1,3.2,5.9,8.4,9.3,12.2,1.9,2.1,5.6,2.2,7.3-.2,3.8-5.7,4-14.5,11.1-17.6v-.3h.1Z"/>
    </g>
    <g>
      <path class="cls-1" d="M241.5,83.7c0,1.3-.2,2.6-.5,3.7-.3,1.1-.8,2.1-1.5,2.9-.7.8-1.5,1.4-2.5,1.8-1,.4-2.2.7-3.5.7s-1.7-.2-2.5-.6c-.8-.4-1.4-.8-1.8-1.3v8.7h-4.3v-24.7h4.3v1.8c0-.2.3-.5.6-.7s.6-.5.9-.7c.4-.2.8-.4,1.3-.5s1-.2,1.5-.2c1.3,0,2.5.2,3.5.7,1,.4,1.8,1.1,2.5,1.8.7.8,1.2,1.7,1.5,2.9.3,1.1.5,2.3.5,3.7h0ZM236.9,83.7c0-1.7-.4-3.1-1.2-4s-1.8-1.4-2.9-1.4-2.1.5-2.9,1.4-1.2,2.2-1.2,4,.4,3.1,1.2,4,1.7,1.4,2.9,1.4,2.1-.5,2.9-1.4,1.2-2.2,1.2-4Z"/>
      <path class="cls-1" d="M244.1,83.7c0-1.3.2-2.5.6-3.6s1-2.1,1.7-2.9c.8-.8,1.7-1.5,2.8-1.9,1.1-.5,2.4-.7,3.8-.7s2.7.2,3.8.7c1.1.5,2,1.1,2.8,1.9.8.8,1.3,1.8,1.7,2.9.4,1.1.6,2.3.6,3.6s-.2,2.5-.6,3.6-1,2.1-1.7,2.9c-.8.8-1.7,1.5-2.8,1.9s-2.4.7-3.8.7-2.7-.2-3.8-.7-2-1.1-2.8-1.9c-.8-.8-1.3-1.8-1.7-2.9s-.6-2.3-.6-3.6h0ZM248.7,83.7c0,.7,0,1.4.3,2.1.2.6.5,1.2.9,1.7s.8.9,1.4,1.2c.5.3,1.2.4,1.9.4s1.3-.1,1.9-.4c.5-.3,1-.7,1.4-1.2s.7-1.1.9-1.7c.2-.6.3-1.3.3-2.1s0-1.4-.3-2.1c-.2-.6-.5-1.2-.9-1.7s-.8-.9-1.4-1.2c-.5-.3-1.2-.4-1.9-.4s-1.3.1-1.9.4c-.5.3-1,.7-1.4,1.2s-.7,1.1-.9,1.7c-.2.6-.3,1.3-.3,2.1Z"/>
      <path class="cls-1" d="M265.1,92.4v-17.6h4.3v2.9c.6-1,1.4-1.8,2.3-2.4.9-.5,1.9-.8,2.9-.8s.4,0,.6,0,.5,0,.7.1v4.2c-.5-.3-1.1-.5-1.8-.5s-1.2.1-1.8.4-1.1.7-1.5,1.3-.8,1.4-1,2.4c-.3,1-.4,2.2-.4,3.6v6.2h-4.3v.2h0Z"/>
    </g>
  </g>
  <g>
    <path class="cls-2" d="M26.1,16.9c-.3-.8-.7-1.5-1.1-2.3-.5-.7-1-1.4-1.6-1.9s-1.4-1-2.2-1.3c-.8-.3-1.8-.5-2.9-.5s-2.3.2-3.3.7-2,1.2-2.8,2.1c-.8.9-1.4,2.1-1.9,3.5s-.7,3-.7,4.8.2,3.4.7,4.8,1.1,2.5,1.9,3.5c.8.9,1.7,1.6,2.8,2.1,1.1.5,2.2.7,3.3.7s2.1-.2,2.9-.5,1.6-.7,2.2-1.3c.6-.5,1.1-1.2,1.6-1.9.4-.7.8-1.5,1.1-2.3l8.5,2.4c-1.1,3.9-3,6.9-5.8,8.8s-6.3,2.9-10.4,2.9-4.9-.4-7.1-1.2c-2.2-.8-4.2-2.1-5.9-3.7-1.7-1.6-3-3.6-4-6S-.1,25.1-.1,21.9s.5-6,1.5-8.4,2.3-4.4,4-6c1.7-1.6,3.7-2.8,5.9-3.7,2.2-.8,4.6-1.2,7-1.2,4.4,0,7.9,1,10.8,3.1,2.8,2.1,4.7,4.9,5.6,8.5l-8.6,2.5v.2Z"/>
    <path class="cls-2" d="M37.9,27.4c0-1.9.3-3.7.9-5.3.6-1.7,1.5-3.2,2.7-4.5s2.7-2.3,4.5-3.1,3.9-1.1,6.3-1.1,4.5.4,6.3,1.1c1.8.8,3.3,1.8,4.5,3.1s2.1,2.8,2.7,4.5.9,3.5.9,5.3-.3,3.7-.9,5.3c-.6,1.7-1.5,3.2-2.7,4.5s-2.7,2.3-4.5,3.1c-1.8.8-3.9,1.1-6.3,1.1s-4.5-.4-6.3-1.1c-1.8-.8-3.3-1.8-4.5-3.1-1.2-1.3-2.1-2.8-2.7-4.5-.6-1.7-.9-3.5-.9-5.3ZM46.8,27.4c0,1.9.4,3.5,1.3,4.7.9,1.2,2.3,1.8,4.2,1.8s3.3-.6,4.2-1.8c.9-1.2,1.3-2.8,1.3-4.7s-.4-3.5-1.3-4.7c-.9-1.2-2.3-1.8-4.2-1.8s-3.3.6-4.2,1.8-1.3,2.8-1.3,4.7Z"/>
    <path class="cls-2" d="M98.4,27.4c0,2.2-.3,4.1-.9,5.9-.6,1.7-1.5,3.2-2.6,4.4-1.1,1.2-2.4,2.1-4,2.8-1.5.6-3.2,1-5,1-2.7,0-4.7-.7-5.9-2.1v12.6h-8.9V13.8h8.9v2.3c.8-.9,1.7-1.5,2.8-2,1.1-.5,2.4-.7,4-.7s3.3.3,4.7,1c1.4.6,2.6,1.6,3.7,2.8,1,1.2,1.8,2.7,2.4,4.4s.9,3.7.9,5.9h0ZM89.8,27.4c0-2.3-.5-3.9-1.5-4.9s-2.2-1.5-3.7-1.5-2.7.5-3.7,1.5-1.5,2.7-1.5,4.9.5,3.9,1.5,4.9,2.2,1.5,3.7,1.5,2.7-.5,3.7-1.5,1.5-2.7,1.5-4.9Z"/>
    <path class="cls-2" d="M101.7,27.4c0-2.2.3-4.1.9-5.9.6-1.7,1.4-3.2,2.5-4.4s2.4-2.1,3.9-2.8c1.5-.6,3.1-1,4.9-1s2.9.2,4.1.7,2.2,1.1,3,1.9v-2.2h8.9v27.2h-8.9v-2.3c-.7.9-1.7,1.6-3,2.1s-2.6.7-3.9.7-3.5-.3-5-1c-1.5-.6-2.8-1.6-3.9-2.8-1.1-1.2-1.9-2.7-2.5-4.4-.6-1.7-.9-3.7-.9-5.9h0ZM110.3,27.4c0,1.1.2,2.1.5,2.9s.7,1.5,1.2,2,1.1.9,1.8,1.2c.7.3,1.4.4,2.1.4s1.4,0,2.1-.4,1.3-.6,1.8-1.2c.5-.5.9-1.2,1.2-2,.3-.8.5-1.8.5-2.9s-.2-2.1-.5-2.9-.7-1.5-1.2-2-1.1-.9-1.8-1.2c-.7-.3-1.4-.4-2.1-.4s-1.4,0-2.1.4c-.7.3-1.3.6-1.8,1.2-.5.5-.9,1.2-1.2,2-.3.8-.5,1.8-.5,2.9Z"/>
    <path class="cls-2" d="M168.9,33h-10l-2.4,8h-9.9l12.8-37.8h9.2l12.8,37.8h-9.9l-2.4-8h-.2ZM161.2,24.8h5.2l-2.6-8.9-2.6,8.9h0Z"/>
    <path class="cls-2" d="M200.8,41v-16.5c0-1.2-.2-2.1-.7-2.8s-1.2-1-2.2-1-1.3.2-1.9.5c-.6.3-1.1.9-1.6,1.6-.5.8-.8,1.7-1.1,3-.3,1.2-.4,2.7-.4,4.5v10.7h-8.2V13.8h8.2v3.2c.8-1.1,1.8-2,2.9-2.6,1.1-.7,2.5-1,4.2-1s3.6.4,4.8,1.2,2.2,1.9,2.9,3.4c.7-1.2,1.7-2.2,3.1-3.2,1.3-.9,3.1-1.4,5.2-1.4s5.1.8,6.6,2.3,2.3,3.6,2.3,6.1v19.3h-8.2v-16.5c0-1.2-.2-2.1-.6-2.8-.4-.7-1.2-1-2.2-1s-1.2.2-1.8.5-1.1.9-1.6,1.6c-.5.8-.8,1.7-1.1,3-.3,1.2-.4,2.7-.4,4.5v10.7h-8.2Z"/>
    <path class="cls-2" d="M237.6,29.7c.3,1.6.9,2.9,1.9,3.7,1,.8,2.4,1.3,4.1,1.3s4.1-1,5.3-2.9l6.8,2.5c-1.2,2.1-2.7,3.9-4.8,5.2-2,1.3-4.7,2-8,2s-4.5-.4-6.3-1.3c-1.7-.9-3.2-2-4.3-3.3-1.1-1.4-1.9-2.9-2.4-4.5-.5-1.7-.8-3.3-.8-4.9s.3-3.3.8-4.9c.6-1.7,1.4-3.2,2.6-4.5,1.2-1.4,2.6-2.5,4.3-3.3,1.7-.9,3.8-1.3,6.1-1.3s4.5.4,6.2,1.3c1.7.9,3.1,2,4.1,3.3s1.8,2.8,2.2,4.4c.4,1.6.7,3.1.7,4.5v2.8h-18.8.3ZM243.1,19.8c-1.1,0-2.2.3-3.2,1s-1.7,1.7-2.1,3.2h10.4c-.2-1.2-.7-2.1-1.6-2.9-.9-.8-2.1-1.2-3.6-1.2h.1ZM241.3,2.8h11.2l-8.2,8.6h-6.4l3.4-8.6Z"/>
    <path class="cls-2" d="M261.2,41V13.8h8.9v3c.7-1,1.8-1.9,3.1-2.5,1.4-.6,2.8-.9,4.5-.9s.9,0,1.3,0c.4,0,.7,0,1,.2v8.4c-.4-.3-.9-.4-1.6-.6-.7,0-1.3-.2-1.9-.2s-1.6.2-2.3.5c-.8.4-1.4.9-2.1,1.7-.6.8-1.1,1.8-1.5,3.1-.4,1.3-.6,2.8-.6,4.7v9.7h-8.9.1Z"/>
    <path class="cls-2" d="M283.5,5.3c0-.8.1-1.4.4-2.1.3-.6.6-1.2,1.1-1.7s1-.9,1.7-1.1,1.3-.4,2.1-.4,1.5,0,2.1.4c.6.3,1.2.6,1.7,1.1s.8,1,1.1,1.7c.3.6.4,1.3.4,2.1s-.1,1.4-.4,2.1c-.3.6-.6,1.2-1.1,1.7s-1,.9-1.7,1.1c-.6.3-1.3.4-2.1.4s-1.5,0-2.1-.4-1.2-.6-1.7-1.1-.8-1-1.1-1.7c-.3-.6-.4-1.3-.4-2.1ZM293.2,13.8v27.2h-8.9V13.8s8.9,0,8.9,0Z"/>
    <path class="cls-2" d="M324.6,33.5c-1.2,2.7-2.9,4.7-5,6s-4.8,1.9-8.1,1.9-4.2-.4-6-1.1c-1.7-.7-3.2-1.7-4.4-3-1.2-1.3-2.1-2.8-2.8-4.5-.6-1.7-.9-3.5-.9-5.4s.3-3.7.9-5.4c.6-1.7,1.5-3.2,2.8-4.5,1.2-1.3,2.7-2.3,4.4-3,1.7-.7,3.7-1.1,6-1.1s5.9.7,8.2,2c2.2,1.3,3.9,3.3,4.9,6l-7.8,3.2c-.4-1.1-1-2-1.8-2.7s-1.9-1-3.2-1-3.1.6-3.9,1.8c-.8,1.2-1.3,2.8-1.3,4.6s.4,3.4,1.3,4.6c.8,1.2,2.2,1.8,4,1.8s2.1-.3,3-.9c.8-.6,1.5-1.5,2.2-2.6l7.6,3.2h-.1Z"/>
    <path class="cls-2" d="M327.6,27.4c0-2.2.3-4.1.9-5.9.6-1.7,1.4-3.2,2.5-4.4s2.4-2.1,3.9-2.8c1.5-.6,3.1-1,4.9-1s2.9.2,4.1.7,2.2,1.1,3,1.9v-2.2h8.9v27.2h-8.9v-2.3c-.7.9-1.7,1.6-3,2.1s-2.6.7-3.9.7-3.5-.3-5-1-2.8-1.6-3.9-2.8c-1.1-1.2-1.9-2.7-2.5-4.4-.6-1.7-.9-3.7-.9-5.9h-.1ZM336.3,27.4c0,1.1.2,2.1.5,2.9s.7,1.5,1.2,2,1.1.9,1.8,1.2c.7.3,1.4.4,2.1.4s1.4,0,2.1-.4,1.3-.6,1.8-1.2c.5-.5.9-1.2,1.2-2,.3-.8.5-1.8.5-2.9s-.2-2.1-.5-2.9-.7-1.5-1.2-2-1.1-.9-1.8-1.2c-.7-.3-1.4-.4-2.1-.4s-1.4,0-2.1.4c-.7.3-1.3.6-1.8,1.2s-.9,1.2-1.2,2c-.3.8-.5,1.8-.5,2.9Z"/>
  </g>
</svg>