<?xml version="1.0" encoding="UTF-8"?>
<svg id="Capa_1" data-name="Capa 1" xmlns="http://www.w3.org/2000/svg" version="1.1" xmlns:inkscape="http://www.inkscape.org/namespaces/inkscape" xmlns:sodipodi="http://sodipodi.sourceforge.net/DTD/sodipodi-0.dtd" xmlns:svg="http://www.w3.org/2000/svg" viewBox="0 0 725.2 378">
  <defs>
    <style>
      .cls-1, .cls-2 {
        fill: #000;
        stroke-width: 0px;
      }

      .cls-2 {
        fill-rule: evenodd;
      }
    </style>
  </defs>
  <sodipodi:namedview id="namedview5" bordercolor="#000000" borderopacity="0.25" inkscape:current-layer="Capa_1" inkscape:cx="373.60001" inkscape:cy="189.27746" inkscape:deskcolor="#d1d1d1" inkscape:pagecheckerboard="0" inkscape:pageopacity="0.0" inkscape:showpageshadow="2" inkscape:window-height="991" inkscape:window-maximized="1" inkscape:window-width="1920" inkscape:window-x="-9" inkscape:window-y="-9" inkscape:zoom="1.5136509" pagecolor="#ffffff"/>
  <g id="_defs" data-name=" defs">
    <inkscape:path-effect id="path-effect6" background="true" background_color="#ffffffff" effect="powermask" hide_mask="false" invert="false" is_visible="true" lpeversion="1" uri="#mask-powermask-path-effect6"/>
  </g>
  <g id="g3">
    <path id="path2" class="cls-2" d="M329.4,222.8v132.3H22.9v-132.3l24.3-26.2c3.6-3.9,3.6-10.2,0-14.1l-24.3-26.2V23.8h306.6v132.3l-24.3,26.2c-3.6,3.9-3.6,10.2,0,14.1l24.3,26.3h-.1ZM351.4,0H.9v167.6l20.2,21.8L.8,211.4v167.6h350.6v-167.6l-20.2-21.9,20.3-21.9V0h0Z"/>
    <path id="path3" class="cls-1" d="M94,65.5h29c17,0,28.7,7.1,35.1,21.2,1.3,3,2.2,6.1,2.8,9.5.5,3.4.8,7.9.8,13.8v20.6c0,5.1-.3,9.3-.8,12.6s-1.4,6.6-2.8,9.9c-5.7,14.2-16.2,21.2-31.5,21.2h-32.5c-2.5,0-4.1-.4-4.9-1.1-.8-.8-1.2-2.3-1.2-4.7v-97.2c0-2.3.4-3.9,1.2-4.7s2.4-1.1,4.9-1.1c0,0,0,0-.1,0ZM111.1,86.9v66h11.6c5.7,0,9.7-1.6,11.9-4.7,2.2-3.2,3.3-8.9,3.3-17.3v-22c0-7.7-1.2-13.3-3.5-16.8-2.4-3.5-6.2-5.2-11.6-5.2,0,0-11.7,0-11.7,0ZM243.6,70.7l29.7,97c.3.7.4,1.2.5,1.5s0,.8,0,1.5c0,2.3-1.3,3.5-4,3.5h-13.1c-2.1,0-3.5-.3-4.2-1s-1.6-2.4-2.4-5.3l-4.8-16.7h-33.8l-4.7,17c-.8,2.6-1.5,4.3-2.2,5s-2.2,1-4.4,1h-12.3c-2.6,0-4-1.2-4-3.5s.2-2.5.6-3.1l30-97c.6-2,1.3-3.4,2.2-4.1s2.3-1.1,4.2-1.1h16.4c1.9,0,3.3.3,4.1,1s1.6,2.1,2.3,4.2h-.1ZM228.2,90.7l-11.3,41.1h22.9l-11.6-41.1h0ZM158.8,211.1v12.2c0,.8,0,1.5-.3,2.1-.2.6-.6,1.4-1.3,2.4l-41.7,63.6h39.2c2.2,0,3.6.4,4.2,1.3.7.9,1,2.7,1,5.4v9.2c0,2.8-.3,4.6-1,5.4-.7.9-2.1,1.3-4.2,1.3h-61.6c-2.5,0-4.1-.4-4.9-1.1-.8-.8-1.2-2.3-1.2-4.7v-12.5c0-1.4.5-2.9,1.6-4.3l41.1-63.6h-35.3c-2.1,0-3.5-.4-4.2-1.3-.7-.9-1.1-2.7-1.1-5.4v-9.2c0-2.8.4-4.6,1.1-5.4.7-.9,2.1-1.3,4.2-1.3h58.4c2.4,0,4.1.4,4.9,1.1.8.8,1.2,2.3,1.2,4.7h0ZM241.7,308.5l-28-57.9v57.8c0,2.3-.4,3.9-1.2,4.7-.8.8-2.4,1.1-4.9,1.1h-9.6c-2.4,0-4.1-.4-4.8-1.1-.8-.8-1.1-2.3-1.1-4.7v-97.2c0-2.3.4-3.9,1.2-4.7s2.4-1.1,4.9-1.1h8.8c2.7,0,4.6.3,5.7,1,1.1.7,2.2,2.2,3.3,4.7l28,57.8v-57.6c0-2.3.4-3.9,1.2-4.7s2.4-1.1,4.9-1.1h9.5c2.4,0,4.1.4,4.9,1.1.8.8,1.2,2.3,1.2,4.7v97.2c0,2.3-.4,3.9-1.2,4.7s-2.4,1.1-4.9,1.1h-8.8c-2.7,0-4.6-.3-5.7-1-1.1-.7-2.2-2.2-3.3-4.7h0Z"/>
  </g>
  <path class="cls-1" d="M357.5,0v378h367.8V0h-367.8ZM573.7,301.8c0,4.1-.7,6.8-2.2,8-1.5,1.3-4.4,1.9-8.7,1.9h-18.8c-4.3,0-7.2-.6-8.7-1.9-1.5-1.2-2.2-3.9-2.2-8V119.3h-34.8c-4.1,0-6.8-.7-8-2.2-1.3-1.5-1.9-4.4-1.9-8.7v-15c0-4.3.6-7.2,1.9-8.7,1.2-1.5,3.9-2.2,8-2.2h64.4c4.3,0,7.2.6,8.7,1.9s2.2,3.9,2.2,8h0v209.4Z"/>
</svg>