<?xml version="1.0" encoding="UTF-8"?>
<svg id="Capa_1" data-name="Capa 1" xmlns="http://www.w3.org/2000/svg" version="1.1" xmlns:inkscape="http://www.inkscape.org/namespaces/inkscape" xmlns:sodipodi="http://sodipodi.sourceforge.net/DTD/sodipodi-0.dtd" xmlns:svg="http://www.w3.org/2000/svg" viewBox="0 0 1071.7 378">
  <defs>
    <style>
      .cls-1, .cls-2 {
        fill: #000;
        stroke-width: 0px;
      }

      .cls-2 {
        fill-rule: evenodd;
      }
    </style>
  </defs>
  <g id="_defs" data-name="&amp;lt;defs">
    <inkscape:path-effect id="path-effect7" effect="powerclip" flatten="false" hide_clip="false" inverse="true" is_visible="true" lpeversion="1" message="Utilice la regla de relleno parimpar en el diálogo &lt;b&gt;Relleno y borde&lt;/b&gt; si el resultado no está aplanada después de convertir el recorte en trayectos."/>
  </g>
  <sodipodi:namedview id="namedview5" bordercolor="#000000" borderopacity="0.25" inkscape:current-layer="Capa_1" inkscape:cx="149.96853" inkscape:cy="267.565" inkscape:deskcolor="#d1d1d1" inkscape:pagecheckerboard="0" inkscape:pageopacity="0.0" inkscape:showpageshadow="2" inkscape:window-height="991" inkscape:window-maximized="1" inkscape:window-width="1920" inkscape:window-x="-9" inkscape:window-y="-9" inkscape:zoom="0.75682545" pagecolor="#ffffff"/>
  <g id="_defs-2" data-name=" defs">
    <inkscape:path-effect id="path-effect6" background="true" background_color="#ffffffff" effect="powermask" hide_mask="false" invert="false" is_visible="true" lpeversion="1" uri="#mask-powermask-path-effect6"/>
  </g>
  <g id="g3">
    <path id="path2" class="cls-2" d="M329.4,222.8v132.3H22.9v-132.3l24.3-26.2c3.6-3.9,3.6-10.2,0-14.1l-24.3-26.2V23.8h306.6v132.3l-24.3,26.2c-3.6,3.9-3.6,10.2,0,14.1l24.3,26.3h-.1ZM351.4,0H.9v167.6l20.2,21.8L.8,211.4v167.6h350.6v-167.6l-20.2-21.9,20.3-21.9V0h0Z"/>
    <path id="path3" class="cls-1" d="M94,65.5h29c17,0,28.7,7.1,35.1,21.2,1.3,3,2.2,6.1,2.8,9.5.5,3.4.8,7.9.8,13.8v20.6c0,5.1-.3,9.3-.8,12.6s-1.4,6.6-2.8,9.9c-5.7,14.2-16.2,21.2-31.5,21.2h-32.5c-2.5,0-4.1-.4-4.9-1.1-.8-.8-1.2-2.3-1.2-4.7v-97.2c0-2.3.4-3.9,1.2-4.7s2.4-1.1,4.9-1.1h-.1ZM111.1,86.9v66h11.6c5.7,0,9.7-1.6,11.9-4.7,2.2-3.2,3.3-8.9,3.3-17.3v-22c0-7.7-1.2-13.3-3.5-16.8-2.4-3.5-6.2-5.2-11.6-5.2,0,0-11.7,0-11.7,0ZM243.6,70.7l29.7,97c.3.7.4,1.2.5,1.5s0,.8,0,1.5c0,2.3-1.3,3.5-4,3.5h-13.1c-2.1,0-3.5-.3-4.2-1s-1.6-2.4-2.4-5.3l-4.8-16.7h-33.8l-4.7,17c-.8,2.6-1.5,4.3-2.2,5s-2.2,1-4.4,1h-12.3c-2.6,0-4-1.2-4-3.5s.2-2.5.6-3.1l30-97c.6-2,1.3-3.4,2.2-4.1s2.3-1.1,4.2-1.1h16.4c1.9,0,3.3.3,4.1,1s1.6,2.1,2.3,4.2h-.1ZM228.2,90.7l-11.3,41.1h22.9l-11.6-41.1h0ZM158.8,211.1v12.2c0,.8,0,1.5-.3,2.1-.2.6-.6,1.4-1.3,2.4l-41.7,63.6h39.2c2.2,0,3.6.4,4.2,1.3.7.9,1,2.7,1,5.4v9.2c0,2.8-.3,4.6-1,5.4-.7.9-2.1,1.3-4.2,1.3h-61.6c-2.5,0-4.1-.4-4.9-1.1-.8-.8-1.2-2.3-1.2-4.7v-12.5c0-1.4.5-2.9,1.6-4.3l41.1-63.6h-35.3c-2.1,0-3.5-.4-4.2-1.3-.7-.9-1.1-2.7-1.1-5.4v-9.2c0-2.8.4-4.6,1.1-5.4.7-.9,2.1-1.3,4.2-1.3h58.4c2.4,0,4.1.4,4.9,1.1.8.8,1.2,2.3,1.2,4.7h0ZM241.7,308.5l-28-57.9v57.8c0,2.3-.4,3.9-1.2,4.7-.8.8-2.4,1.1-4.9,1.1h-9.6c-2.4,0-4.1-.4-4.8-1.1-.8-.8-1.1-2.3-1.1-4.7v-97.2c0-2.3.4-3.9,1.2-4.7s2.4-1.1,4.9-1.1h8.8c2.7,0,4.6.3,5.7,1,1.1.7,2.2,2.2,3.3,4.7l28,57.8v-57.6c0-2.3.4-3.9,1.2-4.7s2.4-1.1,4.9-1.1h9.5c2.4,0,4.1.4,4.9,1.1.8.8,1.2,2.3,1.2,4.7v97.2c0,2.3-.4,3.9-1.2,4.7s-2.4,1.1-4.9,1.1h-8.8c-2.7,0-4.6-.3-5.7-1-1.1-.7-2.2-2.2-3.3-4.7h0Z"/>
  </g>
  <g>
    <path class="cls-1" d="M447.5,40.6c-29.6,44-60.5,87-90,131.1-7.8,12.4-8.1,29.5.1,41.8,8.5,12.6,18.6,24,27.2,36.4,36-19.1,72.6-37.2,108.9-55.7-23.1-.2-46.3,0-69.4-.1,35-51.7,71.8-102.1,107.1-153.5-28,0-56,0-84,0h0Z"/>
    <path class="cls-1" d="M601.8,40.6c-50.7,71.8-101.1,143.7-151.6,215.7-6.7,8.7-13.5,17.8-16.3,28.5-3.6,12.4-.2,26.3,7.5,36.4,9.5,12.5,19.4,24.7,29,37.1,41.8-20.7,83.6-41.6,124.8-63.6-26.6,0-53.1,0-79.7,0,59.6-84.8,118.7-170,179-254.3-30.9,0-61.8,0-92.7,0h0Z"/>
  </g>
  <path class="cls-1" d="M693.7,0v378h378V0h-378ZM948,240.6c0,18.6-5.9,33.2-17.5,43.7-11.7,10.5-27.9,15.8-48.5,15.8s-43.2-5.8-54.6-17.4c-8.6-8.6-12.9-19.1-12.9-31.5s.6-6.3,2-7.5c1.3-1.2,3.8-1.8,7.6-1.8h17.1c3.2,0,5.4.5,6.8,1.3,1.3.9,2.1,2.6,2.5,5,1.2,7.6,4.1,13,8.8,16.4,4.7,3.3,11.9,4.9,21.5,4.9,20.6,0,30.9-10.2,30.9-30.6v-11.4c0-21.6-9.7-32.4-29.1-32.4s-7.1.4-11.1,1.2c-4,.8-7.4,1.9-10.2,3.3-3.8,1.8-6.6,3-8.2,3.5-1.7.5-3.9.8-6.5.8h-16.2c-4,0-6.6-.6-7.8-1.8-1.2-1.2-1.8-3.5-1.8-6.9v-92.1c0-3.4.6-5.7,1.8-6.9,1.2-1.2,3.8-1.8,7.8-1.8h102.9c3.4,0,5.7.6,6.9,1.8,1.2,1.2,1.8,3.8,1.8,7.8v13.2c0,4-.6,6.6-1.8,7.8-1.2,1.2-3.5,1.8-6.9,1.8h-79.8v46.8c6.4-3,12.5-5.2,18.5-6.6,5.9-1.4,12.1-2.1,18.8-2.1,38.2,0,57.3,20.8,57.3,62.4v13.5Z"/>
</svg>