<?xml version="1.0" encoding="UTF-8"?>
<svg id="Capa_1" data-name="Capa 1" xmlns="http://www.w3.org/2000/svg" version="1.1" viewBox="0 0 500 258.6">
  <defs>
    <style>
      .cls-1 {
        fill: #000;
        stroke-width: 0px;
      }
    </style>
  </defs>
  <path class="cls-1" d="M137.8,118.2h9c.7,0,1.4,0,2.1,0,.5,0,.9-.3,1.3-.5.4-.3.7-.8.8-1.3.3-.7.6-1.4.8-2.2l3.4-11.5h24.8l3.5,11.4c.2.8.5,1.6.8,2.3.3.5.6.9.9,1.3.4.3.8.5,1.3.6.5,0,1.2,0,1.8,0h9.7c1.9,0,2.8-.8,2.8-2.3v-1c-.1-.4-.2-.7-.4-1l-21.8-66.1c-.5-1.4-1-2.5-1.7-2.8-.9-.5-2-.7-3-.6h-12c-1.1,0-2.2.2-3.1.8-.8.8-1.4,1.7-1.6,2.8l-22,66.1c-.3.6-.5,1.4-.4,2.1.2,1.1,1.1,1.9,3,1.9ZM167.4,61.4l8.5,27.9h-16.8l8.3-27.9ZM189.9,140.4h-7c-1.3-.1-2.5.2-3.6.8-.6.5-.9,1.6-.9,3.2v39.2l-20.6-39.3c-.5-1.3-1.4-2.4-2.5-3.2-1.3-.5-2.7-.7-4.1-.6h-6.5c-1.3-.1-2.5.2-3.6.8-.6.5-.9,1.6-.9,3.2v66.1c-.1,1.1.2,2.3.8,3.2.5.5,1.7.8,3.5.8h7.1c1.3.1,2.5-.2,3.6-.8.6-.5.9-1.6.9-3.2v-39.3l20.6,39.4c.5,1.3,1.4,2.4,2.5,3.2,1.3.5,2.7.7,4.1.6h6.5c1.3.1,2.5-.2,3.6-.8.6-.5.9-1.6.9-3.2v-66.1c.1-1.1-.2-2.3-.9-3.2-.5-.5-1.7-.8-3.5-.8h0Z"/>
  <path class="cls-1" d="M69.2,214.3h45.8c1.6,0,2.6-.3,3.1-.9s.8-1.8.8-3.7v-6.2c0-1.8-.3-3.1-.8-3.6s-1.6-.9-3.1-.9h-29.3l30.8-43.3c.4-.5.7-1.1.9-1.7.2-.5.3-.9.3-1.4v-8.3c0-1.1-.2-2.3-.9-3.2-1.1-.6-2.3-.9-3.6-.8h-44.4c-1.6,0-2.6.3-3.1.9s-.8,1.8-.8,3.7v6.2c0,1.3.2,2.6.8,3.7.5.6,1.6.9,3.1.9h27.4l-30.4,43.3c-.7.8-1.2,1.9-1.2,3v8.5c0,1.1.2,2.3.9,3.2,1.2.5,2.4.7,3.7.6ZM69.2,118.2h23.9c11.2,0,19-4.8,23.1-14.5,1-2.1,1.7-4.4,2.1-6.7.4-2.8.6-5.7.5-8.5v-14c0-3.9-.3-7.1-.5-9.3-.3-2.3-1.1-4.5-2.1-6.5-2.1-4.6-5.6-8.4-10-10.9-4.1-2.3-9.4-3.5-15.8-3.5h-21.2c-1.3,0-2.5.2-3.6.8-.5.4-.9,1.4-.9,3v66.1c0,1.1.2,2.3.9,3.2.6.5,1.7.8,3.6.8ZM81.6,58.7h8.6c4,0,6.9,1.2,8.5,3.5s2.6,6.1,2.6,11.5v15c0,2.4-.2,4.8-.6,7.1-.3,1.7-.9,3.3-1.8,4.7-.9,1.2-2.1,2.1-3.5,2.5-1.7.6-3.5.8-5.3.8h-8.5v-45.1Z"/>
  <path class="cls-1" d="M0,0v114.4l14.9,14.9-14.9,15v114.3h500V0H0ZM241.5,107.4l-17.1,17.1c-2.6,2.7-2.6,6.9,0,9.6l17.1,17.1v91.1H16.2v-90.3l17.9-18c2.6-2.7,2.6-6.9,0-9.6l-17.9-17.8V16.2h225.3v91.2ZM262.7,156.5s24.4-24.4,38-37.7c14-13.3,21-16.3,46.6-16.3h93.4l-20.2,20.2h-71.3c-17.9,0-22,1.2-30.3,9-5.9,5.6-18.7,18-25.7,24.8h-30.5ZM333.9,149.7l-6.8,6.8h-28.3s13-12.9,21-20.9c8.6-8.5,12.1-9.6,32-9.6h65.4l-18.8,18.8h-48.4c-9.4,0-11.7.5-16.1,4.9ZM452,148.5h-3v8h-1.7v-8h-2.9v-1.4h7.6v1.4ZM462.8,156.5h-1.6v-7.2l-2.6,7.2h-1.4l-2.6-7.2v7.2h-1.6v-9.4h2.4l2.6,7.4,2.5-7.4h2.3v9.4ZM425,156.5h-32.6l54.1-54h32.5l-54,54Z"/>
</svg>