<?xml version="1.0" encoding="utf-8"?>
<!-- Generator: Adobe Illustrator 23.0.1, SVG Export Plug-In . SVG Version: 6.00 Build 0)  -->
<svg version="1.1" id="Livello_1" xmlns="http://www.w3.org/2000/svg" xmlns:xlink="http://www.w3.org/1999/xlink" x="0px" y="0px"
	 viewBox="0 0 405.171 141.757" enable-background="new 0 0 405.171 141.757" xml:space="preserve">
<g>
	<g>
		<path fill="#1ec33c" d="M0,61.247V0.915h20.427c3.792,0,7.483,0.575,11.075,1.723c3.59,1.15,6.779,2.96,9.567,5.43
			c2.786,2.471,5.012,5.602,6.68,9.395c1.666,3.792,2.5,8.332,2.5,13.618c0,5.287-0.833,9.826-2.5,13.618
			c-1.667,3.792-3.893,6.925-6.68,9.395c-2.788,2.471-5.977,4.281-9.567,5.43c-3.592,1.15-7.283,1.723-11.075,1.723L0,61.247
			L0,61.247z M18.53,48.146c2.069,0,4.079-0.272,6.033-0.818c1.952-0.546,3.706-1.466,5.257-2.758
			c1.552-1.292,2.787-3.045,3.707-5.257c0.918-2.211,1.379-4.956,1.379-8.231s-0.461-6.018-1.379-8.231
			c-0.92-2.211-2.155-3.965-3.707-5.257c-1.551-1.292-3.304-2.211-5.257-2.758c-1.954-0.546-3.965-0.818-6.033-0.818h-3.534v34.131
			h3.534V48.146z"/>
		<path fill="#1ec33c" d="M69.348,43.147c0.459,2.586,1.493,4.555,3.102,5.904c1.608,1.351,3.792,2.025,6.55,2.025
			c3.677,0,6.52-1.551,8.532-4.654l10.86,3.965c-1.84,3.391-4.383,6.163-7.627,8.317c-3.247,2.155-7.485,3.232-12.713,3.232
			c-3.908,0-7.254-0.69-10.041-2.069c-2.788-1.379-5.057-3.146-6.809-5.301c-1.753-2.155-3.032-4.553-3.835-7.196
			c-0.805-2.642-1.207-5.258-1.207-7.843c0-2.586,0.444-5.199,1.336-7.843c0.89-2.641,2.254-5.042,4.094-7.196
			c1.839-2.155,4.137-3.921,6.896-5.3c2.758-1.379,6.004-2.069,9.739-2.069c3.907,0,7.21,0.69,9.912,2.069
			c2.7,1.379,4.882,3.132,6.55,5.257c1.666,2.126,2.857,4.453,3.577,6.981c0.718,2.529,1.077,4.942,1.077,7.239v4.482
			C99.343,43.147,69.348,43.147,69.348,43.147z M78.052,27.375c-1.781,0-3.462,0.533-5.042,1.595
			c-1.581,1.064-2.686,2.745-3.318,5.042h16.635c-0.288-1.838-1.136-3.404-2.543-4.697C82.376,28.021,80.465,27.375,78.052,27.375z"
			/>
		<path fill="#1ec33c" d="M150.83,39.527c0,3.448-0.504,6.565-1.508,9.352c-1.006,2.788-2.399,5.143-4.18,7.068
			c-1.782,1.926-3.893,3.404-6.335,4.438c-2.443,1.034-5.1,1.552-7.972,1.552c-4.368,0-7.528-1.091-9.481-3.276v20.167h-14.135
			V17.808h14.135v3.707c1.263-1.379,2.758-2.457,4.482-3.232c1.723-0.776,3.849-1.164,6.378-1.164c2.758,0,5.271,0.518,7.542,1.552
			c2.269,1.034,4.223,2.514,5.86,4.438c1.638,1.926,2.916,4.281,3.835,7.068C150.369,32.963,150.83,36.079,150.83,39.527z
			 M137.04,39.527c0-3.62-0.776-6.248-2.327-7.886c-1.552-1.638-3.506-2.456-5.861-2.456c-2.357,0-4.309,0.818-5.86,2.456
			c-1.551,1.638-2.327,4.266-2.327,7.886c0,3.62,0.776,6.248,2.327,7.886c1.551,1.638,3.504,2.457,5.86,2.457
			c2.356,0,4.309-0.819,5.861-2.457C136.265,45.776,137.04,43.147,137.04,39.527z"/>
		<path fill="#1ec33c" d="M156.631,39.527c0-2.987,0.487-5.831,1.465-8.532c0.977-2.7,2.413-5.086,4.309-7.154
			c1.896-2.069,4.28-3.707,7.154-4.913c2.872-1.207,6.206-1.81,9.998-1.81s7.125,0.603,9.998,1.81
			c2.872,1.207,5.258,2.844,7.154,4.913c1.896,2.068,3.331,4.453,4.309,7.154c0.977,2.701,1.465,5.546,1.465,8.532
			c0,2.988-0.489,5.832-1.465,8.532c-0.978,2.701-2.413,5.086-4.309,7.154c-1.896,2.069-4.281,3.706-7.154,4.913
			c-2.873,1.207-6.206,1.81-9.998,1.81s-7.126-0.603-9.998-1.81c-2.874-1.207-5.258-2.844-7.154-4.913
			c-1.896-2.069-3.333-4.452-4.309-7.154C157.117,45.36,156.631,42.515,156.631,39.527z M170.765,39.527
			c0,3.102,0.703,5.602,2.112,7.499c1.407,1.896,3.633,2.844,6.68,2.844c3.045,0,5.271-0.949,6.68-2.844
			c1.408-1.897,2.112-4.396,2.112-7.499c0-3.102-0.705-5.602-2.112-7.499c-1.409-1.896-3.635-2.843-6.68-2.843
			c-3.047,0-5.273,0.948-6.68,2.843C171.468,33.925,170.765,36.425,170.765,39.527z"/>
		<path fill="#1ec33c" d="M210.112,61.247V17.808h14.135v4.74c1.149-1.666,2.801-2.987,4.956-3.965
			c2.155-0.977,4.525-1.466,7.111-1.466c0.803,0,1.508,0.058,2.112,0.172c0.603,0.116,1.134,0.231,1.595,0.344V31.08
			c-0.633-0.401-1.48-0.703-2.543-0.905c-1.063-0.201-2.055-0.302-2.974-0.302c-1.264,0-2.5,0.289-3.706,0.862
			c-1.207,0.575-2.299,1.48-3.276,2.715c-0.978,1.237-1.766,2.874-2.37,4.913c-0.603,2.04-0.905,4.525-0.905,7.455v15.427H210.112z"
			/>
		<path fill="#1ec33c" d="M275.012,60.73c-0.861,0.288-1.883,0.561-3.06,0.818c-1.179,0.259-2.456,0.388-3.835,0.388
			c-2.471,0-4.755-0.332-6.852-0.992c-2.098-0.66-3.922-1.652-5.473-2.974c-1.551-1.321-2.773-2.987-3.663-4.999
			c-0.891-2.011-1.335-4.366-1.335-7.068V28.667h-6.206V17.808h6.206V8.844l13.79-8.619v17.583h10.946v10.86h-10.946v14.566
			c0,4.195,1.638,6.291,4.913,6.291c1.09,0,2.054-0.129,2.887-0.388c0.832-0.259,1.708-0.588,2.628-0.992V60.73H275.012z"/>
		<path fill="#1ec33c" d="M292.756,43.147c0.459,2.586,1.493,4.555,3.102,5.904c1.608,1.351,3.792,2.025,6.55,2.025
			c3.677,0,6.52-1.551,8.532-4.654l10.86,3.965c-1.84,3.391-4.383,6.163-7.627,8.317c-3.247,2.155-7.485,3.232-12.713,3.232
			c-3.908,0-7.254-0.69-10.041-2.069c-2.788-1.379-5.057-3.146-6.809-5.301c-1.753-2.155-3.032-4.553-3.835-7.196
			c-0.805-2.642-1.207-5.258-1.207-7.843c0-2.586,0.444-5.199,1.336-7.843c0.89-2.641,2.254-5.042,4.094-7.196
			c1.839-2.155,4.137-3.921,6.896-5.3c2.758-1.379,6.004-2.069,9.739-2.069c3.907,0,7.21,0.69,9.912,2.069
			c2.7,1.379,4.882,3.132,6.55,5.257c1.666,2.126,2.857,4.453,3.577,6.981c0.718,2.529,1.077,4.942,1.077,7.239v4.482
			C322.751,43.147,292.756,43.147,292.756,43.147z M301.461,27.375c-1.781,0-3.462,0.533-5.042,1.595
			c-1.581,1.064-2.686,2.745-3.318,5.042h16.635c-0.288-1.838-1.136-3.404-2.543-4.697
			C305.784,28.021,303.874,27.375,301.461,27.375z"/>
		<path fill="#1ec33c" d="M344.614,17.118c3.39,0,6.262,0.661,8.619,1.982c2.356,1.323,4.251,3.074,5.688,5.258l-7.67,7.068
			c-1.896-2.528-4.08-3.792-6.55-3.792c-0.805,0-1.495,0.215-2.069,0.646c-0.574,0.431-0.862,1.021-0.862,1.766
			c0,0.805,0.388,1.523,1.164,2.155c0.776,0.633,2.082,1.265,3.922,1.897c2.125,0.69,4.051,1.394,5.775,2.112
			c1.723,0.719,3.189,1.551,4.396,2.5c1.207,0.948,2.14,2.127,2.801,3.533c0.66,1.409,0.992,3.146,0.992,5.214
			c0,1.954-0.359,3.807-1.077,5.56c-0.719,1.753-1.766,3.291-3.146,4.612c-1.379,1.322-3.06,2.37-5.042,3.146
			c-1.982,0.776-4.209,1.164-6.68,1.164c-2.471,0-4.683-0.317-6.637-0.948c-1.954-0.631-3.663-1.493-5.128-2.586
			c-1.466-1.09-2.745-2.356-3.835-3.792c-1.092-1.436-2.012-2.93-2.758-4.482l10.429-5.602c0.747,2.012,1.752,3.635,3.017,4.87
			c1.263,1.237,2.901,1.853,4.912,1.853c0.977,0,1.853-0.229,2.628-0.689c0.776-0.46,1.164-1.207,1.164-2.241
			c0-0.746-0.259-1.393-0.776-1.939c-0.517-0.546-1.222-1.034-2.112-1.465c-0.892-0.43-1.896-0.832-3.017-1.207
			c-1.12-0.372-2.284-0.818-3.491-1.335c-1.322-0.518-2.572-1.149-3.749-1.897c-1.179-0.746-2.198-1.622-3.06-2.628
			c-0.862-1.005-1.552-2.168-2.069-3.492c-0.518-1.321-0.776-2.843-0.776-4.568c0-1.666,0.345-3.261,1.034-4.784
			c0.69-1.521,1.681-2.872,2.974-4.051c1.292-1.177,2.857-2.112,4.697-2.801C340.161,17.463,342.258,17.118,344.614,17.118z"/>
	</g>
	<path d="M382.678,0h10.13c0,20.451,0,40.909,0,61.376h-10.13C382.674,40.913,382.674,20.455,382.678,0z"/>
	<g>
		<g>
			<path d="M405.171,109.895c-4.154,0-8.308,0-12.461,0c0-4.154,0-8.308,0-12.461h-10.13c-0.001,4.153-0.002,8.307-0.002,12.461
				c-4.154,0-8.309,0-12.462,0v10.13c4.154,0.001,8.308,0.002,12.462,0.002c0,4.154,0.001,8.307,0.002,12.462h10.13
				c0-4.155,0-8.308,0-12.462c4.153,0,8.307-0.001,12.461-0.002V109.895z"/>
			<path d="M343.13,90.055c3.018-1.36,6.538-0.962,9.177,1.037c3.289,2.592,4.684,6.751,5.798,10.625
				c1.984,8.024,2.27,16.374,0.84,24.515c-0.375,2.384-1.788,5.16-4.439,5.488c-1.982,0.217-3.765-1.215-3.982-3.198
				c-0.002-0.015-0.003-0.029-0.005-0.044c-0.471-5.494,1.525-11.012,0.28-16.464c-0.34-1.788-2.145-3.349-3.998-2.914
				c-2.384,0.775-3.963,2.979-5.131,5.089c-2.437,4.618-3.837,9.689-5.417,14.641c-1.085,3.575-2.836,7.335-6.275,9.2
				c-5.637,3.057-13.646,2.419-17.704-2.926c-3.504-4.767-5.875-10.255-9.129-15.183c-0.87-1.108-2.074-2.795-3.712-2.199
				c-1.603,0.435-2.014,2.324-2.014,3.772c0.244,5.399,2.854,10.303,3.736,15.576c0.512,2.145-0.87,5.029-3.408,4.654
				c-2.384,0.274-3.814-2.02-4.624-3.909c-3.575-8.748-5.506-18.514-3.486-27.881c0.93-4.32,2.384-8.831,5.732-11.918
				s9.022-3.754,12.68-0.816c5.22,4.058,7.419,10.625,11.816,15.38c2.425,2.687,7.109,2.819,9.284-0.238
				C333.9,105.089,334.21,93.946,343.13,90.055z"/>
		</g>
		<g>
			<path d="M227.518,121.12c0,1.704-0.214,3.261-0.639,4.672c-0.426,1.411-1.065,2.615-1.917,3.614
				c-0.852,0.999-1.91,1.778-3.173,2.336c-1.264,0.558-2.732,0.838-4.407,0.838c-1.117,0-2.167-0.243-3.151-0.727
				c-0.985-0.485-1.726-1.036-2.226-1.653v11.018h-5.465v-31.202h5.465v2.292c0.147-0.293,0.381-0.595,0.706-0.904
				c0.323-0.308,0.719-0.595,1.19-0.859c0.469-0.265,0.998-0.477,1.587-0.639c0.587-0.161,1.219-0.243,1.895-0.243
				c1.675,0,3.143,0.28,4.407,0.838c1.263,0.559,2.321,1.337,3.173,2.336c0.852,0.999,1.491,2.204,1.917,3.613
				S227.518,119.417,227.518,121.12z M221.789,121.12c0-2.204-0.5-3.885-1.498-5.046c-0.999-1.16-2.218-1.741-3.658-1.741
				s-2.652,0.581-3.636,1.741c-0.985,1.161-1.477,2.842-1.477,5.046c0,2.204,0.491,3.886,1.477,5.046
				c0.984,1.161,2.196,1.741,3.636,1.741c1.439,0,2.659-0.58,3.658-1.741C221.289,125.006,221.789,123.324,221.789,121.12z"/>
			<path d="M230.894,121.12c0-1.615,0.249-3.121,0.749-4.517c0.499-1.395,1.234-2.607,2.204-3.636
				c0.97-1.028,2.152-1.836,3.547-2.424c1.395-0.587,2.989-0.882,4.782-0.882c1.792,0,3.386,0.294,4.782,0.882
				c1.395,0.588,2.578,1.396,3.548,2.424c0.97,1.029,1.704,2.241,2.204,3.636c0.499,1.396,0.749,2.902,0.749,4.517
				c0,1.616-0.25,3.122-0.749,4.517c-0.5,1.396-1.234,2.608-2.204,3.636c-0.97,1.029-2.153,1.836-3.548,2.424
				c-1.396,0.587-2.99,0.882-4.782,0.882c-1.792,0-3.386-0.294-4.782-0.882c-1.396-0.587-2.578-1.395-3.547-2.424
				c-0.97-1.028-1.704-2.24-2.204-3.636C231.143,124.242,230.894,122.737,230.894,121.12z M236.623,121.12
				c0,0.911,0.125,1.778,0.375,2.6c0.249,0.823,0.61,1.543,1.08,2.16c0.469,0.617,1.05,1.109,1.741,1.477
				c0.69,0.368,1.477,0.551,2.358,0.551c0.882,0,1.668-0.183,2.358-0.551c0.69-0.367,1.27-0.86,1.741-1.477
				c0.469-0.617,0.83-1.337,1.08-2.16c0.249-0.822,0.375-1.689,0.375-2.6c0-0.91-0.125-1.778-0.375-2.6
				c-0.25-0.822-0.61-1.543-1.08-2.16c-0.471-0.617-1.051-1.108-1.741-1.477c-0.691-0.367-1.477-0.551-2.358-0.551
				s-1.668,0.184-2.358,0.551c-0.691,0.368-1.271,0.86-1.741,1.477c-0.471,0.617-0.83,1.337-1.08,2.16
				C236.748,119.343,236.623,120.21,236.623,121.12z"/>
			<path d="M257.429,132.226v-22.212h5.465v3.614c0.794-1.322,1.77-2.314,2.93-2.975c1.161-0.661,2.372-0.992,3.636-0.992
				c0.235,0,0.507,0.015,0.816,0.044c0.309,0.03,0.595,0.074,0.86,0.132v5.333c-0.676-0.411-1.44-0.617-2.292-0.617
				c-0.793,0-1.55,0.176-2.27,0.529c-0.72,0.352-1.352,0.911-1.895,1.675c-0.544,0.764-0.977,1.77-1.3,3.019
				c-0.324,1.249-0.485,2.769-0.485,4.561v7.888L257.429,132.226L257.429,132.226z"/>
		</g>
	</g>
</g>
</svg>
