<?xml version="1.0" encoding="utf-8"?>
<!-- Generator: Adobe Illustrator 28.1.0, SVG Export Plug-In . SVG Version: 6.00 Build 0)  -->
<svg version="1.1" id="Layer_1" xmlns="http://www.w3.org/2000/svg" xmlns:xlink="http://www.w3.org/1999/xlink" x="0px" y="0px"
	 viewBox="0 0 183.5 100.5" style="enable-background:new 0 0 183.5 100.5;" xml:space="preserve">
<style type="text/css">
	.st0{fill:#1D0F44;}
	.st1{fill:#E40138;}
</style>
<polygon class="st0" points="48.2,79.2 30,67.3 1.8,79.2 18.4,59.7 0,47.7 28.7,47.7 48.2,24.8 48.2,47.7 76,47.7 48.2,59.5 "/>
<path class="st1" d="M116.2,94.2V97c0,1.8,1.3,3.2,3.1,3.2h61.1h0.1c1.8,0,3.1-1.5,3.1-3.2V82.9c0-1.6-1.3-3.2-3.2-3.2h-28.6
	l17.8-23.8c10.6-13.7,12.9-29,7.1-40.7c-4.9-9.8-15.1-15.4-28.1-15.4C128.4,0,117,11,116.5,30.9l-0.1,4.7c0,1.9,1.4,3.1,3.3,3.1
	h13.7c1.8,0,3.1-1.4,3.2-3.2l0.2-4.3c0.3-5.3,2.5-11.7,11.2-11.7c7.1,0,10.6,4.5,10.8,9.1c0.2,5.1-1,8.9-5.5,14.6L117.8,90
	C116.8,91.3,116.2,92.3,116.2,94.2"/>
<g>
	<path class="st0" d="M99.6,100.4c1.7,0,3-1.5,3-3.3V82.5c0-1.8-1.4-3.3-3-3.3H48.2v21.3L99.6,100.4z"/>
	<polyline class="st0" points="48.2,100.5 29,100.5 48.2,79.2 	"/>
</g>
<path class="st0" d="M99.7,20c2.4,0,4.5-1.4,4.5-3.2V3.2c0-1.7-2-3.2-4.5-3.2H24.8v19.9L99.7,20z"/>
<rect x="24.8" class="st0" width="23.4" height="24.8"/>
</svg>
