<?xml version="1.0" encoding="utf-8"?>
<!-- Generator: Adobe Illustrator 28.1.0, SVG Export Plug-In . SVG Version: 6.00 Build 0)  -->
<svg version="1.1" id="Layer_1" xmlns="http://www.w3.org/2000/svg" xmlns:xlink="http://www.w3.org/1999/xlink" x="0px" y="0px"
	 viewBox="0 0 159.4 100.5" style="enable-background:new 0 0 159.4 100.5;" xml:space="preserve">
<style type="text/css">
	.st0{fill:#1D0F44;}
	.st1{fill:#D50032;}
</style>
<polygon class="st0" points="48.2,79.2 30,67.3 1.8,79.2 18.4,59.7 0,47.7 28.7,47.7 48.2,24.8 48.2,47.7 76,47.7 48.2,59.5 "/>
<g>
	<path class="st0" d="M99.6,100.4c1.7,0,3-1.5,3-3.3V82.5c0-1.8-1.4-3.3-3-3.3H48.2v21.3L99.6,100.4z"/>
	<polyline class="st0" points="48.2,100.5 29,100.5 48.2,79.2 	"/>
</g>
<path class="st0" d="M99.8,20c2.4,0,4.5-1.4,4.5-3.2V3.2c0-1.7-2-3.2-4.5-3.2h-75v19.9L99.8,20z"/>
<rect x="24.8" class="st0" width="23.4" height="24.8"/>
<path class="st1" d="M159.4,3.5c0-1.8-1.4-3.2-3.2-3.2h-32.8c-1.8,0-3.2,1.5-3.2,3.2v14.1c0,2,1.2,3.4,3.1,3.4h14v76
	c0,1.8,1.3,3.2,3.1,3.2h15.9c1.8,0,3.1-1.4,3.1-3.2V3.5z"/>
</svg>
