<svg data-name="Capa 2" viewBox="0 0 251.03 155.58" xmlns="http://www.w3.org/2000/svg"><g data-name="Capa 1"><path d="M226.06.02h11.14v67.46h-11.14V.02Zm24.97 120.55h-13.71v-13.7h-11.14v13.7h-13.71v11.13h13.71v13.7h11.14v-13.7h13.71v-11.13Zm-68.24-21.81a9.95 9.95 0 0 1 10.09 1.14c3.62 2.85 5.15 7.42 6.38 11.68 2.18 8.82 2.5 18 .92 26.95-.41 2.62-1.97 5.67-4.88 6.03a3.967 3.967 0 0 1-4.38-3.51V141c-.52-6.04 1.68-12.1.31-18.1-.37-1.96-2.36-3.68-4.4-3.2-2.62.85-4.36 3.27-5.64 5.59-2.68 5.08-4.22 10.65-5.96 16.09-1.19 3.93-3.12 8.06-6.9 10.11-6.2 3.36-15.01 2.66-19.47-3.22-3.85-5.24-6.46-11.27-10.04-16.69-.96-1.22-2.28-3.07-4.08-2.42-1.76.48-2.22 2.55-2.22 4.15.27 5.93 3.14 11.32 4.11 17.12.56 2.36-.96 5.53-3.75 5.12-2.62.3-4.2-2.22-5.09-4.3-3.93-9.61-6.06-20.35-3.83-30.65 1.02-4.75 2.62-9.71 6.31-13.1 3.68-3.39 9.92-4.13 13.95-.9 5.74 4.46 8.16 11.68 13 16.9 2.67 2.95 7.82 3.1 10.21-.26 5.22-7.97 5.56-20.22 15.38-24.5l-.02.02ZM55.62 132.91c0 1.87-.23 3.58-.7 5.13s-1.17 2.87-2.11 3.97-2.1 1.95-3.49 2.57c-1.39.61-3.01.92-4.85.92-1.23 0-2.38-.27-3.47-.8-1.08-.53-1.9-1.14-2.45-1.82v12.11h-6.01v-34.3h6.01v2.52c.16-.32.42-.65.78-.99s.79-.65 1.31-.94 1.1-.52 1.75-.7 1.34-.27 2.08-.27c1.84 0 3.46.31 4.85.92s2.55 1.47 3.49 2.57 1.64 2.42 2.11 3.97.7 3.26.7 5.14Zm-6.3 0c0-2.42-.55-4.27-1.65-5.55-1.1-1.27-2.44-1.91-4.02-1.91s-2.92.64-4 1.91c-1.08 1.28-1.62 3.12-1.62 5.55s.54 4.27 1.62 5.55 2.42 1.91 4 1.91 2.92-.64 4.02-1.91 1.65-3.12 1.65-5.55Zm10.02 0c0-1.78.27-3.43.82-4.96s1.36-2.87 2.42-4c1.07-1.13 2.37-2.02 3.9-2.66 1.53-.65 3.29-.97 5.26-.97s3.72.32 5.26.97c1.53.65 2.84 1.53 3.9 2.66 1.07 1.13 1.87 2.46 2.42 4 .55 1.53.82 3.19.82 4.96s-.27 3.43-.82 4.96-1.36 2.87-2.42 4c-1.07 1.13-2.37 2.02-3.9 2.66-1.53.65-3.29.97-5.26.97s-3.72-.32-5.26-.97-2.84-1.53-3.9-2.66c-1.07-1.13-1.87-2.46-2.42-4-.55-1.53-.82-3.19-.82-4.96Zm6.3 0c0 1 .14 1.95.41 2.86.27.9.67 1.7 1.19 2.37.52.68 1.15 1.22 1.91 1.62s1.62.61 2.59.61 1.83-.2 2.59-.61c.76-.4 1.4-.94 1.91-1.62.52-.68.91-1.47 1.19-2.37.27-.9.41-1.86.41-2.86s-.14-1.95-.41-2.86c-.27-.9-.67-1.7-1.19-2.37a5.857 5.857 0 0 0-1.91-1.62c-.76-.4-1.62-.61-2.59-.61s-1.83.2-2.59.61c-.76.4-1.4.94-1.91 1.62-.52.68-.91 1.47-1.19 2.37s-.41 1.86-.41 2.86Zm22.89 12.21v-24.41h6.01v3.97c.87-1.45 1.95-2.54 3.22-3.27 1.28-.73 2.61-1.09 4-1.09.26 0 .56.02.9.05s.65.08.95.15v5.86c-.74-.45-1.58-.68-2.52-.68-.87 0-1.71.19-2.5.58s-1.49 1-2.08 1.84c-.6.84-1.07 1.95-1.43 3.32s-.53 3.04-.53 5.01v8.67h-6.02Z" style="fill:#010101"/><path d="M26.48.03c7.8-.04 15.61-.04 23.41-.01-9.97 14.25-19.94 28.51-29.85 42.8 6.38-.02 12.77-.1 19.15.07C49.17 28.61 59.11 14.3 69.08.02 77.66-.01 86.23.01 94.81 0 78.27 23.61 61.85 47.31 45.28 70.92c7.46.09 14.91-.04 22.36.08-11.59 5.95-23.16 11.98-34.83 17.8-2.98-4-6.37-7.73-8.99-12-2.39-3.88-1.8-8.97.69-12.65 4.62-7.11 9.74-13.89 14.44-20.96-10.05 4.9-19.89 10.23-29.9 15.2-2.37-3.61-5.45-6.7-7.64-10.43-2.37-3.94-1.55-9.08.99-12.73 8-11.74 16.16-23.39 24.08-35.2Zm77.2.01c33.42.09 66.82.07 100.24.01.13 22.78-.04 45.56.08 68.34-30.43-.03-60.87-.08-91.31.02-3.53-4.81-9.06-9.11-9-15.63-.05-17.59-.01-35.17-.01-52.75Zm10.98 17.08c-.02 3.54-.02 7.06.04 10.59 3.46-.01 6.91-.02 10.37 0 .02 8.31 0 16.63 0 24.95 4.76.23 9.52.11 14.28.14.12-8.35-.01-16.72.07-25.07 3.48-.04 6.96-.03 10.44.01 0-3.55.02-7.11 0-10.66-11.74.03-23.47-.04-35.2.03Zm38.33-.03c.07 3.01-.37 6.09.45 9.04 2.82 8.83 5.94 17.55 8.66 26.41 7.25.47 14.55.35 21.81.08 2.6-8.81 5.76-17.44 8.54-26.19.99-3.01.5-6.22.61-9.31-4.26-.02-8.52-.03-12.77-.01-2.41 8.66-4.49 17.42-7.09 26.03-3.5-8.31-4.86-17.41-7.55-26.03-4.22-.01-8.44-.01-12.66-.01Z" style="fill:#1ec43d"/></g></svg>