<?xml version="1.0" encoding="UTF-8"?>
<svg id="Layer_1" data-name="Layer 1" xmlns="http://www.w3.org/2000/svg" version="1.1" viewBox="0 0 3527.8 907.3">
  <defs>
    <style>
      .cls-1 {
        fill: #ff4a4a;
      }

      .cls-1, .cls-2 {
        stroke-width: 0px;
      }

      .cls-2 {
        fill: #fff;
      }
    </style>
  </defs>
  <path class="cls-2" d="M381.2,471.1c.1-.3.4-.5.7-.7,0,.2,0,.5,0,.9-.2.2-.5,0-.7-.2Z"/>
  <g>
    <path class="cls-1" d="M2823.1,710.2c-573,0-1145.5,0-1717.9,0-4.5,0-7.5-1.1-10.4-4.8-17.2-21.7-34.6-43.1-52.1-64.5-19.9-24.4-29.8-52-29.7-83.7.3-163.2.1-326.3.1-489.5v-6.3h2514.7v648.7h-704.7M2302.6,645.5h1160.2V126.4h-1421.5v519c87,0,173.7,0,261.3,0M1842.5,381.9c9.2-27.6,18.5-55.1,27.7-82.7.9-2.8,1.4-5.8,1.4-8.8.1-20.8,0-41.7,0-62.5s0-3.2,0-4.9h-123c-22,81.1-43.9,161.9-65.7,242.5h-8.4c-22-81-43.9-161.9-65.7-242.6h-122.8v5.1c0,20.8,0,41.7,0,62.5,0,3.3.5,6.7,1.5,9.7,28.7,86,57.6,171.9,86.3,257.8,1.2,3.7,2.7,4.7,6.5,4.7,65.7-.1,131.3,0,197,0h4.6c20.1-60.2,40.2-120.1,60.5-180.9M1356.9,399.5v-75.2h99.3v-101.2h-338.1v101.5h100.2v238h138.5v-163.1Z"/>
    <path class="cls-1" d="M381.1,470.9c-13.2,6.6-26.4,13.1-39.6,19.8-46.5,23.7-92.9,47.4-139.3,71.1-34,17.4-68,34.7-102,52.1-1.8.9-3.6,1.7-5.6,2.7-10.7-13.6-21.6-27.1-32-40.9-13.4-17.6-27.2-35-39.5-53.3-16.7-24.9-20.4-52.6-13.5-81.7,4.2-18.1,13-34,23.5-49.1,75.5-109.2,150.9-218.4,226.5-327.6,1.1-1.6,3.6-3.1,5.4-3.1,72.3-.2,144.7-.1,217-.1.6,0,1.2.1,2.5.2-95.4,135.9-190.5,271.4-286.1,407.8,2.7,0,4.3,0,5.9,0,58.7,0,117.3,0,176,.1,3.6,0,4.9-1.8,6.5-4.2,44.9-64,89.8-128,134.7-192.1,48.6-69.3,97.3-138.7,145.9-208,1.7-2.4,3.2-4,6.7-4,79.5.1,159,.1,238.5.1.7,0,1.3,0,3.1,0-158.5,225.8-316.5,451-474.9,676.8h212.1c.1.3.2.7.4,1-110.3,56.2-220.7,112.4-331.2,168.6-17.6-22.5-35.3-44.6-52.4-67.1-11.6-15.2-23.7-30.2-33.4-46.6-20-33.8-20.5-69-3.6-104.4,11-23,27-42.7,41.4-63.4,35.7-51.3,71.8-102.5,108-154.2.3-.8.3-1,.2-1.2-.3.2-.6.4-.9.6Z"/>
    <path class="cls-1" d="M2504.7,520.5c-16.6,23.6-40.2,34.7-67.3,39.3-9.3,1.6-18.9,2.2-28.3,2.2-83,.2-166,0-248.9,0h-5.7V223.4c1.3,0,2.8-.2,4.2-.2,86,0,172-.1,257.9,0,21.5,0,42.4,3.8,61.5,14.4,26.3,14.5,39.9,37,40.4,66.9.3,13,.7,26.1-1.3,38.9-4.1,26.2-22,43.1-48.2,47.6-1.8.3-3.6.7-5.2,1-1.8,4.7.3,7,4.2,9.1,15.7,8.6,31.4,17.4,46.9,26.3,1.7.9,3.5,3.3,3.5,5,.2,15.5.2,31-.2,46.5-.4,15-5.2,28.7-13.5,41.5M2352.6,431.8h-58.1v39.2c21.7,0,43,0,64.3,0,14.9,0,19.9-5.3,19.9-20.3,0-1.3,0-2.7,0-4-.7-7.5-4.3-12-11.6-13.7-4.3-1-8.9-.9-14.3-1.2M2294.1,330.5v19.4c22.6,0,44.7,0,66.8,0,3.1,0,6.6-.5,9.1-2.1,3-1.9,6.7-4.8,7.5-7.9,3.3-13.5-.3-24.3-16.1-24.8-20.6-.7-41.2-.4-61.8-.5-1.8,0-3.5,0-5.5,0v16Z"/>
    <path class="cls-1" d="M3128.1,535v27h-139.6V223.2h5c85.7,0,171.3-.2,257,.1,25.3,0,49.7,5,70.8,20.2,20.6,14.8,30.8,35.3,31.1,60.6.2,16,.8,32.1-.4,48-2.2,29.9-21.7,49.8-51.4,54-1,.1-1.9.3-2.9.4-1.5,4.2-.5,6.7,3.6,8.9,16.1,8.7,32,17.7,47.8,26.8,1.6.9,3.2,3.4,3.2,5.2.2,37.3.1,74.7.1,112,0,.8-.2,1.6-.3,2.6h-139.4v-5c0-28,0-56,0-84,0-13.4-5.4-19.6-18.8-19.8-21.8-.4-43.6-.1-66-.1v82M3129.9,361.8c18.5,0,37,0,55.4,0,4.5,0,9-.3,13.4-.8,9.4-1.2,13.8-6.1,14.1-15.6.1-3.8,0-7.7,0-11.5,0-12.4-5.1-18.6-17.5-18.9-22.1-.6-44.3-.3-66.4-.4-.3,0-.5.4-1,.7,0,14.7,0,29.5,0,44.3,0,.7.5,1.4,1.8,2.2Z"/>
    <path class="cls-1" d="M2888,325.1c20.7,54.2,41.3,108,61.9,161.8.6,1.7,1,3.5,1.1,5.3,0,22.7,0,45.3,0,68,0,.5-.2.9-.3,1.7h-124.1c-4.4-13.5-8.9-27-13.2-40.5-.7-2.3-1.5-3.6-4.3-3.6-43.3.1-86.7,0-130,0-.5,0-1,.1-1.7.3-4.8,14.6-9.6,29.2-14.4,43.9h-124.3v-4.9c0-21,0-42,0-63,0-2.9.5-6,1.6-8.7,32.8-86.1,65.8-172.1,98.7-258.2.9-2.5,1.6-4.1,5-4.1,68.2.1,136.3,0,205,0,13,33.8,26,67.7,39.1,102M2765.7,372.9c-5.7-17.5-11.4-35-17.1-52.3-7.7-.8-7.7-.8-9.9,6-5.8,17.8-11.7,35.7-17.4,53.5-4.3,13.4-8.6,26.8-13,40.6h72.7c-5.1-15.8-10.1-31.4-15.3-47.8Z"/>
  </g>
</svg>