<?xml version="1.0" encoding="utf-8"?>
<!-- Generator: Adobe Illustrator 23.0.1, SVG Export Plug-In . SVG Version: 6.00 Build 0)  -->
<svg version="1.1" id="Livello_1" xmlns="http://www.w3.org/2000/svg" xmlns:xlink="http://www.w3.org/1999/xlink" x="0px" y="0px"
	 viewBox="0 0 404.993 179.071" enable-background="new 0 0 404.993 179.071" xml:space="preserve">
<g>
	<g>
		<path fill="#1ec33c" d="M162.353,4.013v37.274h19.59v10.339h-31.697V4.013H162.353z"/>
		<path fill="#1ec33c" d="M185.391,6.665c0-0.952,0.17-1.825,0.51-2.619c0.34-0.792,0.804-1.496,1.394-2.109
			c0.589-0.612,1.293-1.088,2.109-1.428C190.22,0.17,191.104,0,192.056,0s1.836,0.17,2.653,0.51c0.816,0.34,1.519,0.816,2.109,1.428
			c0.589,0.612,1.054,1.316,1.394,2.109c0.34,0.794,0.51,1.666,0.51,2.619s-0.17,1.826-0.51,2.619
			c-0.34,0.794-0.805,1.496-1.394,2.109c-0.59,0.612-1.293,1.088-2.109,1.428c-0.816,0.34-1.7,0.51-2.653,0.51
			c-0.953,0-1.837-0.169-2.653-0.51c-0.816-0.34-1.52-0.816-2.109-1.428c-0.59-0.612-1.054-1.315-1.394-2.109
			C185.56,8.492,185.391,7.618,185.391,6.665z M197.633,17.345v34.281h-11.155V17.345H197.633z"/>
		<path fill="#1ec33c" d="M218.886,16.8c2.131,0,4.149,0.386,6.054,1.157l6.87-3.605l3.741,6.326l-4.761,2.449
			c0.363,0.771,0.657,1.588,0.884,2.449c0.226,0.862,0.34,1.792,0.34,2.789c0,1.815-0.352,3.424-1.054,4.83
			c-0.704,1.406-1.644,2.596-2.822,3.571c-1.18,0.976-2.562,1.724-4.149,2.244c-1.588,0.521-3.288,0.782-5.102,0.782
			c-1.588,0-3.085-0.204-4.49-0.612c-0.544,0.409-0.884,0.816-1.021,1.224c-0.137,0.409-0.204,0.748-0.204,1.021
			c0,0.635,0.26,1.134,0.782,1.496c0.521,0.364,1.235,0.544,2.143,0.544h6.394c4.126,0,7.244,0.907,9.352,2.721
			c2.108,1.814,3.162,4.377,3.162,7.686c0,2.177-0.453,4.035-1.36,5.577c-0.908,1.541-2.109,2.8-3.605,3.775
			c-1.496,0.975-3.208,1.689-5.136,2.143c-1.927,0.452-3.912,0.681-5.952,0.681c-2.404,0-4.581-0.238-6.53-0.715
			c-1.95-0.475-3.639-1.19-5.067-2.143c-1.428-0.952-2.528-2.132-3.299-3.537c-0.771-1.406-1.156-3.038-1.156-4.897
			c0-1.043,0.238-2.189,0.715-3.434c0.476-1.247,1.167-2.347,2.074-3.299c-1.133-1.36-1.7-3.151-1.7-5.374
			c0-0.544,0.091-1.133,0.272-1.768c0.18-0.635,0.452-1.269,0.816-1.905c0.363-0.635,0.816-1.259,1.36-1.871
			c0.544-0.612,1.201-1.122,1.972-1.531c-0.816-0.907-1.452-1.972-1.905-3.197c-0.453-1.224-0.681-2.561-0.681-4.013
			c0-1.768,0.34-3.367,1.021-4.795c0.68-1.428,1.61-2.641,2.789-3.64c1.179-0.997,2.561-1.768,4.149-2.312
			C215.371,17.072,217.071,16.8,218.886,16.8z M215.758,51.899c-1.088,0-2.155-0.092-3.197-0.272
			c-0.137,0.409-0.238,0.77-0.306,1.088c-0.068,0.317-0.102,0.681-0.102,1.088c0,1.269,0.612,2.267,1.837,2.993
			c1.224,0.725,2.879,1.088,4.965,1.088c1.722,0,3.173-0.272,4.353-0.816c1.179-0.544,1.768-1.383,1.768-2.516
			c0-1.043-0.432-1.746-1.293-2.108c-0.862-0.364-1.95-0.544-3.265-0.544L215.758,51.899L215.758,51.899z M215.486,28.364
			c0,0.998,0.316,1.815,0.952,2.449c0.635,0.636,1.451,0.952,2.449,0.952c0.997,0,1.813-0.316,2.449-0.952
			c0.635-0.635,0.953-1.451,0.953-2.449c0-1.042-0.318-1.893-0.953-2.55c-0.635-0.657-1.452-0.986-2.449-0.986
			c-0.998,0-1.815,0.329-2.449,0.986C215.802,26.472,215.486,27.322,215.486,28.364z"/>
		<path fill="#1ec33c" d="M236.658,34.485c0-2.721,0.374-5.18,1.122-7.38c0.748-2.199,1.802-4.058,3.162-5.578
			c1.36-1.519,2.982-2.687,4.864-3.503s3.956-1.225,6.224-1.225c1.905,0,3.639,0.284,5.203,0.85
			c1.565,0.568,2.822,1.372,3.775,2.415v-2.721h11.155v34.281h-11.155v-2.925c-0.908,1.134-2.177,1.996-3.809,2.585
			c-1.632,0.589-3.288,0.884-4.965,0.884c-2.313,0-4.433-0.409-6.359-1.225c-1.927-0.816-3.571-1.983-4.931-3.503
			c-1.36-1.519-2.415-3.378-3.162-5.578C237.031,39.667,236.658,37.206,236.658,34.485z M247.541,34.485
			c0,1.406,0.192,2.619,0.578,3.639c0.385,1.021,0.895,1.871,1.53,2.55c0.635,0.681,1.383,1.18,2.244,1.496
			c0.861,0.318,1.745,0.476,2.653,0.476c0.907,0,1.779-0.158,2.619-0.476c0.838-0.316,1.587-0.816,2.244-1.496
			c0.657-0.68,1.179-1.53,1.565-2.55c0.385-1.021,0.578-2.232,0.578-3.639c0-1.405-0.193-2.619-0.578-3.64
			c-0.386-1.021-0.907-1.871-1.565-2.55c-0.658-0.68-1.406-1.178-2.244-1.496c-0.839-0.316-1.712-0.475-2.619-0.475
			s-1.792,0.159-2.653,0.475c-0.862,0.318-1.611,0.816-2.244,1.496c-0.635,0.681-1.146,1.531-1.53,2.55
			C247.733,31.867,247.541,33.081,247.541,34.485z"/>
		<path fill="#1ec33c" d="M295.091,34.485c0-2.721,0.363-5.18,1.088-7.38c0.725-2.199,1.745-4.058,3.061-5.578
			c1.315-1.519,2.901-2.687,4.761-3.503c1.859-0.816,3.922-1.225,6.19-1.225c1.905,0,3.525,0.295,4.864,0.884
			c1.337,0.59,2.437,1.383,3.299,2.38V3.469h11.155v48.157h-11.155v-2.925c-1.905,2.313-4.558,3.469-7.958,3.469
			c-2.313,0-4.421-0.409-6.326-1.225c-1.905-0.816-3.514-1.983-4.83-3.503c-1.316-1.519-2.336-3.378-3.061-5.578
			C295.454,39.667,295.091,37.206,295.091,34.485z M305.974,34.485c0,2.856,0.612,4.931,1.837,6.224
			c1.224,1.293,2.766,1.938,4.625,1.938c1.859,0,3.401-0.646,4.625-1.938c1.224-1.293,1.837-3.368,1.837-6.224
			s-0.612-4.931-1.837-6.224c-1.225-1.293-2.767-1.938-4.625-1.938c-1.86,0-3.4,0.646-4.625,1.938
			C306.586,29.554,305.974,31.629,305.974,34.485z"/>
		<path fill="#1ec33c" d="M345.551,37.343c0.363,2.041,1.178,3.595,2.449,4.659c1.269,1.066,2.993,1.599,5.17,1.599
			c2.901,0,5.147-1.224,6.734-3.673l8.57,3.128c-1.452,2.676-3.458,4.864-6.02,6.564c-2.562,1.701-5.907,2.551-10.033,2.551
			c-3.085,0-5.725-0.544-7.924-1.632c-2.201-1.088-3.992-2.483-5.374-4.184c-1.383-1.7-2.393-3.593-3.027-5.68
			c-0.636-2.085-0.952-4.149-0.952-6.19c0-2.041,0.351-4.103,1.054-6.19c0.703-2.085,1.779-3.979,3.231-5.68
			c1.451-1.7,3.265-3.095,5.442-4.183c2.177-1.088,4.738-1.632,7.686-1.632c3.084,0,5.691,0.544,7.823,1.632
			c2.131,1.088,3.853,2.473,5.17,4.149c1.315,1.678,2.255,3.514,2.822,5.509c0.566,1.996,0.85,3.9,0.85,5.714v3.537L345.551,37.343
			L345.551,37.343z M352.421,24.895c-1.406,0-2.733,0.42-3.979,1.259c-1.248,0.84-2.12,2.167-2.619,3.979h13.128
			c-0.227-1.45-0.896-2.687-2.007-3.706C355.832,25.405,354.325,24.895,352.421,24.895z"/>
		<path fill="#1ec33c" d="M32.865,85.111c-0.363-0.995-0.826-1.946-1.391-2.851c-0.567-0.905-1.246-1.697-2.037-2.377
			c-0.792-0.679-1.721-1.211-2.785-1.596c-1.063-0.384-2.274-0.577-3.633-0.577c-1.449,0-2.829,0.295-4.142,0.883
			c-1.314,0.589-2.479,1.471-3.497,2.648c-1.019,1.178-1.823,2.638-2.411,4.38c-0.589,1.743-0.883,3.768-0.883,6.077
			s0.294,4.335,0.883,6.077c0.588,1.743,1.38,3.203,2.377,4.38c0.995,1.178,2.161,2.06,3.497,2.648
			c1.334,0.589,2.727,0.883,4.176,0.883c1.402,0,2.636-0.192,3.7-0.577c1.063-0.385,1.98-0.917,2.75-1.596
			c0.769-0.68,1.437-1.46,2.003-2.343c0.565-0.883,1.029-1.844,1.391-2.886l10.729,2.988c-1.358,4.935-3.803,8.624-7.334,11.069
			s-7.9,3.667-13.106,3.667c-3.169,0-6.157-0.521-8.964-1.562c-2.808-1.04-5.262-2.58-7.367-4.617s-3.768-4.572-4.991-7.605
			C0.611,99.191,0,95.682,0,91.698s0.622-7.492,1.868-10.525c1.245-3.033,2.931-5.568,5.059-7.605
			c2.127-2.037,4.594-3.576,7.401-4.617c2.807-1.04,5.749-1.562,8.827-1.562c5.477,0,9.992,1.291,13.547,3.871
			c3.553,2.58,5.896,6.157,7.028,10.729L32.865,85.111z"/>
		<path fill="#1ec33c" d="M47.238,98.353c0-2.716,0.374-5.172,1.12-7.367c0.746-2.196,1.799-4.051,3.157-5.568
			c1.358-1.516,2.976-2.682,4.856-3.497c1.878-0.815,3.949-1.223,6.213-1.223c1.902,0,3.633,0.283,5.194,0.849
			c1.562,0.567,2.818,1.37,3.769,2.411v-2.717h11.136v34.223H71.548v-2.92c-0.906,1.132-2.173,1.992-3.803,2.58
			c-1.629,0.588-3.283,0.883-4.957,0.883c-2.309,0-4.426-0.408-6.35-1.223c-1.924-0.814-3.565-1.979-4.923-3.497
			c-1.358-1.516-2.411-3.372-3.157-5.568C47.612,103.524,47.238,101.069,47.238,98.353z M58.103,98.353
			c0,1.404,0.191,2.614,0.577,3.633c0.384,1.019,0.893,1.868,1.528,2.546c0.634,0.68,1.38,1.178,2.241,1.494
			c0.859,0.317,1.742,0.475,2.648,0.475c0.905,0,1.776-0.157,2.614-0.475c0.837-0.316,1.585-0.815,2.241-1.494
			c0.656-0.679,1.177-1.528,1.562-2.546c0.385-1.019,0.577-2.228,0.577-3.633c0-1.402-0.193-2.614-0.577-3.633
			c-0.385-1.019-0.906-1.868-1.562-2.546c-0.657-0.679-1.404-1.177-2.241-1.494c-0.838-0.316-1.709-0.475-2.614-0.475
			c-0.906,0-1.789,0.159-2.648,0.475c-0.86,0.317-1.608,0.814-2.241,1.494c-0.634,0.679-1.144,1.528-1.528,2.546
			C58.295,95.738,58.103,96.949,58.103,98.353z"/>
		<path fill="#1ec33c" d="M110.283,115.464V94.685c0-1.448-0.295-2.602-0.883-3.463c-0.589-0.859-1.494-1.29-2.716-1.29
			c-0.815,0-1.596,0.203-2.343,0.611c-0.747,0.407-1.404,1.086-1.969,2.037c-0.567,0.951-1.008,2.197-1.325,3.734
			c-0.317,1.54-0.475,3.441-0.475,5.704v13.445h-10.32V81.241h10.321v4.074c0.996-1.358,2.208-2.467,3.633-3.328
			c1.426-0.86,3.18-1.291,5.262-1.291c2.49,0,4.493,0.487,6.01,1.46c1.516,0.974,2.727,2.411,3.633,4.311
			c0.905-1.494,2.184-2.828,3.836-4.006c1.651-1.176,3.836-1.765,6.553-1.765c3.622,0,6.383,0.963,8.285,2.886
			c1.901,1.924,2.851,4.471,2.851,7.639v24.242h-10.32V94.685c0-1.494-0.272-2.659-0.815-3.497
			c-0.543-0.837-1.449-1.257-2.716-1.257c-0.77,0-1.528,0.203-2.274,0.611c-0.747,0.407-1.415,1.086-2.003,2.037
			c-0.589,0.951-1.052,2.197-1.392,3.734c-0.34,1.54-0.509,3.418-0.509,5.636v13.513h-10.322V115.464z"/>
		<path fill="#1ec33c" d="M182.383,98.353c0,2.716-0.397,5.173-1.188,7.367c-0.792,2.197-1.891,4.052-3.293,5.568
			c-1.404,1.517-3.068,2.682-4.991,3.497c-1.924,0.815-4.017,1.223-6.281,1.223c-3.441,0-5.931-0.86-7.47-2.58v15.889h-11.136
			V81.241h11.136v2.92c0.995-1.086,2.173-1.935,3.531-2.546c1.358-0.611,3.033-0.917,5.025-0.917c2.173,0,4.153,0.408,5.942,1.223
			c1.788,0.814,3.328,1.981,4.617,3.497c1.29,1.517,2.297,3.373,3.022,5.568C182.02,93.181,182.383,95.636,182.383,98.353z
			 M171.518,98.353c0-2.851-0.611-4.923-1.834-6.213c-1.223-1.29-2.762-1.935-4.617-1.935c-1.857,0-3.396,0.645-4.617,1.935
			c-1.222,1.29-1.834,3.362-1.834,6.213c0,2.851,0.611,4.923,1.834,6.213c1.222,1.29,2.761,1.935,4.617,1.935
			c1.856,0,3.396-0.645,4.617-1.935C170.907,103.275,171.518,101.204,171.518,98.353z"/>
		<path fill="#1ec33c" d="M197.587,101.204c0.362,2.037,1.176,3.589,2.445,4.651c1.267,1.064,2.988,1.596,5.161,1.596
			c2.896,0,5.138-1.223,6.722-3.667l8.556,3.123c-1.449,2.672-3.452,4.856-6.01,6.553c-2.558,1.697-5.897,2.546-10.016,2.546
			c-3.079,0-5.716-0.543-7.91-1.629c-2.197-1.086-3.985-2.479-5.365-4.176c-1.381-1.697-2.389-3.587-3.022-5.67
			c-0.635-2.081-0.951-4.142-0.951-6.179c0-2.037,0.35-4.096,1.052-6.179c0.702-2.082,1.776-3.973,3.225-5.67
			c1.448-1.697,3.259-3.09,5.433-4.176c2.173-1.086,4.73-1.63,7.673-1.63c3.079,0,5.681,0.543,7.81,1.63
			c2.127,1.086,3.847,2.468,5.161,4.142c1.313,1.675,2.251,3.509,2.818,5.5c0.565,1.992,0.849,3.894,0.849,5.704v3.531
			L197.587,101.204L197.587,101.204z M204.444,88.778c-1.403,0-2.728,0.42-3.973,1.256c-1.246,0.838-2.117,2.163-2.614,3.973h13.106
			c-0.227-1.448-0.895-2.682-2.003-3.701C207.851,89.287,206.346,88.778,204.444,88.778z"/>
		<path fill="#1ec33c" d="M225.475,98.353c0-2.353,0.384-4.594,1.154-6.722c0.769-2.127,1.902-4.006,3.396-5.636
			s3.372-2.92,5.636-3.87c2.263-0.951,4.889-1.426,7.876-1.426c2.988,0,5.613,0.475,7.876,1.426c2.263,0.951,4.142,2.24,5.636,3.87
			c1.494,1.629,2.625,3.509,3.396,5.636c0.769,2.129,1.154,4.369,1.154,6.722c0,2.354-0.385,4.595-1.154,6.722
			c-0.77,2.129-1.902,4.006-3.396,5.636c-1.494,1.629-3.373,2.92-5.636,3.871c-2.264,0.951-4.889,1.426-7.876,1.426
			c-2.988,0-5.614-0.475-7.876-1.426c-2.264-0.951-4.142-2.241-5.636-3.871c-1.494-1.63-2.626-3.508-3.396-5.636
			C225.859,102.947,225.475,100.707,225.475,98.353z M236.612,98.353c0,2.445,0.554,4.414,1.663,5.908
			c1.108,1.494,2.862,2.24,5.262,2.24c2.399,0,4.153-0.746,5.262-2.24s1.663-3.463,1.663-5.908s-0.555-4.414-1.663-5.907
			c-1.109-1.494-2.863-2.241-5.262-2.241c-2.4,0-4.154,0.746-5.262,2.241C237.166,93.939,236.612,95.908,236.612,98.353z"/>
		<path fill="#1ec33c" d="M278.851,81.241v3.939c0.905-1.313,2.218-2.387,3.939-3.226c1.72-0.837,3.643-1.257,5.771-1.257
			c3.939,0,6.825,0.985,8.658,2.954c1.834,1.969,2.75,4.743,2.75,8.319v23.495h-11.136V95.229c0-1.448-0.34-2.58-1.019-3.396
			c-0.679-0.815-1.629-1.222-2.852-1.222c-1.902,0-3.396,0.826-4.482,2.479c-1.086,1.653-1.63,4.108-1.63,7.367v15.006h-11.136
			V81.241H278.851z"/>
		<path fill="#1ec33c" d="M316.032,101.204c0.362,2.037,1.176,3.589,2.445,4.651c1.267,1.064,2.988,1.596,5.161,1.596
			c2.896,0,5.138-1.223,6.722-3.667l8.556,3.123c-1.449,2.672-3.452,4.856-6.01,6.553c-2.558,1.697-5.897,2.546-10.016,2.546
			c-3.079,0-5.716-0.543-7.91-1.629c-2.197-1.086-3.984-2.479-5.365-4.176c-1.381-1.697-2.389-3.587-3.022-5.67
			c-0.635-2.081-0.951-4.142-0.951-6.179c0-2.037,0.35-4.096,1.052-6.179c0.702-2.082,1.776-3.973,3.225-5.67
			c1.448-1.697,3.259-3.09,5.433-4.176c2.173-1.086,4.73-1.63,7.673-1.63c3.079,0,5.681,0.543,7.81,1.63
			c2.127,1.086,3.847,2.468,5.161,4.142c1.313,1.675,2.251,3.509,2.818,5.5c0.565,1.992,0.849,3.894,0.849,5.704v3.531
			L316.032,101.204L316.032,101.204z M322.89,88.778c-1.403,0-2.728,0.42-3.973,1.256c-1.246,0.838-2.117,2.163-2.614,3.973h13.106
			c-0.227-1.448-0.895-2.682-2.003-3.701C326.296,89.287,324.792,88.778,322.89,88.778z"/>
		<path fill="#1ec33c" d="M356.934,80.697c2.671,0,4.933,0.521,6.79,1.562c1.856,1.041,3.35,2.422,4.482,4.142l-6.044,5.568
			c-1.494-1.991-3.215-2.988-5.161-2.988c-0.635,0-1.178,0.169-1.63,0.509c-0.452,0.34-0.68,0.804-0.68,1.391
			c0,0.635,0.306,1.2,0.917,1.697c0.611,0.498,1.64,0.997,3.09,1.494c1.674,0.543,3.191,1.098,4.55,1.663
			c1.358,0.567,2.513,1.222,3.463,1.969c0.951,0.747,1.686,1.675,2.207,2.784c0.52,1.11,0.781,2.479,0.781,4.108
			c0,1.54-0.283,3-0.849,4.38c-0.566,1.381-1.391,2.592-2.479,3.633c-1.086,1.041-2.411,1.868-3.973,2.479s-3.317,0.917-5.262,0.917
			c-1.947,0-3.691-0.249-5.228-0.747c-1.54-0.497-2.886-1.177-4.04-2.037c-1.155-0.859-2.163-1.856-3.022-2.988
			c-0.86-1.131-1.585-2.309-2.173-3.531l8.216-4.414c0.588,1.585,1.38,2.863,2.377,3.836c0.995,0.974,2.285,1.46,3.871,1.46
			c0.769,0,1.46-0.18,2.071-0.543c0.611-0.362,0.917-0.951,0.917-1.765c0-0.588-0.203-1.097-0.611-1.528
			c-0.408-0.43-0.962-0.814-1.663-1.154c-0.703-0.34-1.494-0.656-2.377-0.951c-0.883-0.294-1.799-0.645-2.75-1.052
			c-1.041-0.408-2.026-0.905-2.954-1.494c-0.929-0.588-1.732-1.279-2.411-2.071c-0.68-0.791-1.223-1.708-1.63-2.75
			c-0.408-1.04-0.611-2.24-0.611-3.599c0-1.313,0.272-2.569,0.814-3.769c0.543-1.199,1.325-2.263,2.343-3.191
			c1.019-0.927,2.251-1.663,3.701-2.207C353.425,80.968,355.078,80.697,356.934,80.697z"/>
	</g>
	<path d="M387.045,4.299h8.007c0,37.12,0,74.253,0,111.402h-8.007C387.042,78.56,387.042,41.426,387.045,4.299z"/>
	<g>
		<g>
			<path d="M404.993,153.885c-3.284,0-6.567,0-9.85,0c0-3.284,0-6.567,0-9.85h-8.008c-0.001,3.283-0.001,6.566-0.002,9.85
				c-3.284,0-6.568,0-9.851,0v8.007c3.283,0.001,6.567,0.001,9.851,0.002c0,3.283,0.001,6.567,0.002,9.851h8.008
				c0-3.284,0-6.567,0-9.851c3.283,0,6.566-0.001,9.85-0.002V153.885z"/>
			<path d="M355.952,138.202c2.386-1.075,5.168-0.76,7.254,0.82c2.6,2.049,3.702,5.337,4.583,8.398
				c1.569,6.342,1.795,12.943,0.664,19.378c-0.297,1.884-1.413,4.079-3.509,4.338c-1.567,0.171-2.976-0.96-3.147-2.528
				c-0.001-0.012-0.002-0.023-0.004-0.035c-0.372-4.343,1.206-8.705,0.221-13.014c-0.268-1.413-1.696-2.647-3.161-2.303
				c-1.884,0.612-3.132,2.355-4.056,4.023c-1.926,3.65-3.033,7.659-4.282,11.573c-0.857,2.826-2.242,5.798-4.96,7.273
				c-4.456,2.416-10.787,1.912-13.994-2.313c-2.77-3.768-4.644-8.106-7.216-12.002c-0.688-0.876-1.639-2.209-2.934-1.738
				c-1.267,0.344-1.592,1.837-1.592,2.982c0.193,4.268,2.256,8.144,2.953,12.313c0.405,1.696-0.688,3.975-2.694,3.679
				c-1.884,0.217-3.015-1.597-3.655-3.09c-2.826-6.915-4.352-14.635-2.756-22.039c0.735-3.415,1.884-6.981,4.531-9.421
				c2.647-2.44,7.131-2.967,10.023-0.645c4.126,3.208,5.864,8.398,9.34,12.157c1.917,2.124,5.619,2.228,7.339-0.188
				C348.656,150.086,348.901,141.278,355.952,138.202z"/>
		</g>
		<g>
			<path d="M264.564,162.758c0,1.347-0.169,2.578-0.505,3.693c-0.337,1.115-0.842,2.067-1.515,2.857
				c-0.674,0.79-1.51,1.405-2.508,1.846c-0.999,0.441-2.16,0.662-3.484,0.662c-0.883,0-1.713-0.192-2.49-0.575
				c-0.778-0.383-1.365-0.819-1.759-1.306v8.709h-4.32V153.98h4.32v1.811c0.116-0.232,0.301-0.47,0.558-0.714
				c0.255-0.244,0.569-0.47,0.941-0.679c0.371-0.209,0.789-0.377,1.254-0.505c0.464-0.127,0.964-0.192,1.498-0.192
				c1.324,0,2.485,0.221,3.484,0.662c0.998,0.442,1.834,1.057,2.508,1.846c0.673,0.79,1.178,1.742,1.515,2.856
				C264.396,160.18,264.564,161.412,264.564,162.758z M260.035,162.758c0-1.742-0.395-3.071-1.184-3.989
				c-0.79-0.917-1.754-1.376-2.892-1.376s-2.096,0.459-2.874,1.376c-0.778,0.918-1.167,2.247-1.167,3.989
				c0,1.742,0.388,3.072,1.167,3.989c0.778,0.918,1.736,1.376,2.874,1.376c1.138,0,2.102-0.458,2.892-1.376
				C259.64,165.83,260.035,164.5,260.035,162.758z"/>
			<path d="M267.233,162.758c0-1.277,0.197-2.467,0.592-3.571c0.395-1.103,0.975-2.061,1.742-2.874
				c0.767-0.813,1.701-1.451,2.804-1.916c1.103-0.464,2.363-0.697,3.78-0.697c1.416,0,2.677,0.233,3.78,0.697
				c1.103,0.465,2.038,1.103,2.805,1.916c0.767,0.814,1.347,1.771,1.742,2.874c0.395,1.103,0.592,2.294,0.592,3.571
				c0,1.278-0.198,2.468-0.592,3.571c-0.396,1.104-0.975,2.062-1.742,2.874c-0.767,0.813-1.702,1.452-2.805,1.916
				c-1.103,0.464-2.363,0.697-3.78,0.697c-1.417,0-2.677-0.233-3.78-0.697s-2.038-1.103-2.804-1.916
				c-0.767-0.813-1.347-1.771-1.742-2.874C267.43,165.226,267.233,164.036,267.233,162.758z M271.762,162.758
				c0,0.72,0.099,1.406,0.296,2.055c0.197,0.65,0.482,1.219,0.853,1.707c0.371,0.488,0.83,0.877,1.376,1.167
				c0.546,0.291,1.167,0.435,1.864,0.435c0.697,0,1.318-0.145,1.864-0.435c0.546-0.29,1.004-0.68,1.376-1.167
				c0.371-0.488,0.656-1.057,0.854-1.707c0.197-0.65,0.296-1.335,0.296-2.055c0-0.719-0.099-1.405-0.296-2.055
				c-0.198-0.65-0.482-1.219-0.854-1.707c-0.372-0.488-0.831-0.876-1.376-1.167c-0.546-0.29-1.167-0.435-1.864-0.435
				c-0.697,0-1.318,0.145-1.864,0.435c-0.546,0.291-1.005,0.68-1.376,1.167c-0.372,0.488-0.656,1.057-0.853,1.707
				C271.86,161.353,271.762,162.039,271.762,162.758z"/>
			<path d="M288.208,171.537v-17.558h4.32v2.857c0.627-1.045,1.399-1.829,2.316-2.352c0.917-0.522,1.875-0.784,2.874-0.784
				c0.186,0,0.401,0.012,0.645,0.035c0.244,0.024,0.47,0.058,0.68,0.104v4.215c-0.535-0.325-1.138-0.488-1.811-0.488
				c-0.627,0-1.225,0.139-1.794,0.418c-0.569,0.278-1.068,0.72-1.498,1.324c-0.43,0.604-0.772,1.399-1.027,2.387
				c-0.256,0.988-0.383,2.189-0.383,3.605v6.236L288.208,171.537L288.208,171.537z"/>
		</g>
	</g>
</g>
</svg>
