<?xml version="1.0" encoding="utf-8"?>
<!-- Generator: Adobe Illustrator 28.1.0, SVG Export Plug-In . SVG Version: 6.00 Build 0)  -->
<svg version="1.1" id="Capa_1" xmlns="http://www.w3.org/2000/svg" xmlns:xlink="http://www.w3.org/1999/xlink" x="0px" y="0px"
	 viewBox="0 0 1202.6 325.5" style="enable-background:new 0 0 1202.6 325.5;" xml:space="preserve">
<style type="text/css">
	.st0{fill:#020203;}
	.st1{fill:#48AD41;}
</style>
<g>
	<g>
		<g>
			<path class="st0" d="M265.8,68.8c10.4-2.7,21.5,0,29.7,7c11.6,9.9,16.5,25,20.6,39c7.6,30,8.9,61.2,3.7,91.6
				c-1,7.1-3.4,14.9-9.4,19.4c-5.4,4.4-14.1,4.6-18.9-0.9c-4.3-5.1-4.8-12-4.2-18.4c1.3-14.4,3.4-28.8,2.8-43.4
				c-0.3-5.4-0.9-11.1-4.2-15.6c-3.6-4.9-10-6.5-15.4-4.2c-8.5,3.9-13.8,12.2-18.1,20.2c-9.6,19.3-15.1,40.4-22,60.9
				c-3.6,10.2-9.4,20.2-18.4,26.6c-10.7,7.6-24.4,9.5-37.1,8.9c-15.9-0.9-30-11.1-38.2-24.4c-9.4-15.3-18.1-31.2-27.2-46.9
				c-2.7-4.4-5.6-9.2-10.1-12c-4.8-3.3-11.9-0.4-13.7,4.9c-2.2,5.6-1.6,12-0.7,17.8c2.7,15.7,8.9,30.4,12.6,45.9
				c1.3,5.8,2.1,12.3-1.5,17.5c-5.1,7.1-16.8,6.2-21.8-0.3c-5.1-6.5-7.7-14.4-10.5-22.1c-9.4-27.3-15.2-56.9-10.2-85.8
				c3.1-18.1,8-37.3,20.9-51.1C85.4,91.6,104,87.2,118.5,94c8.3,4.2,14.9,11.1,20.5,18.3c7.9,10.5,14.9,21.7,21.8,32.8
				c4.6,7.4,10.7,14.4,18.9,17.8c8.3,3.4,17.8,1.6,24.2-4.6c4.6-4.3,7.1-10.4,9.5-16c6.2-15.3,12-30.7,19.3-45.6
				C239.2,83.4,251.1,72.2,265.8,68.8z"/>
		</g>
	</g>
</g>
<rect x="388" y="2.5" class="st0" width="24" height="318"/>
<g>
	<path class="st1" d="M462,66.3v52.6h27.6v14.6h-44.7V66.3H462z"/>
	<path class="st1" d="M494.5,70c0-1.3,0.2-2.6,0.7-3.7c0.5-1.1,1.1-2.1,2-3c0.8-0.9,1.8-1.5,3-2c1.2-0.5,2.4-0.7,3.7-0.7
		c1.3,0,2.6,0.2,3.7,0.7s2.1,1.2,3,2c0.8,0.9,1.5,1.9,2,3c0.5,1.1,0.7,2.4,0.7,3.7c0,1.3-0.2,2.6-0.7,3.7c-0.5,1.1-1.1,2.1-2,3
		c-0.8,0.9-1.8,1.5-3,2s-2.4,0.7-3.7,0.7c-1.3,0-2.6-0.2-3.7-0.7c-1.2-0.5-2.1-1.2-3-2c-0.8-0.9-1.5-1.9-2-3
		C494.7,72.6,494.5,71.4,494.5,70z M511.8,85.1v48.4H496V85.1H511.8z"/>
	<path class="st1" d="M541.8,84.3c3,0,5.9,0.5,8.5,1.6l9.7-5.1l5.3,8.9l-6.7,3.5c0.5,1.1,0.9,2.2,1.2,3.5c0.3,1.2,0.5,2.5,0.5,3.9
		c0,2.6-0.5,4.8-1.5,6.8c-1,2-2.3,3.7-4,5c-1.7,1.4-3.6,2.4-5.9,3.2c-2.2,0.7-4.6,1.1-7.2,1.1c-2.2,0-4.4-0.3-6.3-0.9
		c-0.8,0.6-1.2,1.2-1.4,1.7c-0.2,0.6-0.3,1.1-0.3,1.4c0,0.9,0.4,1.6,1.1,2.1c0.7,0.5,1.7,0.8,3,0.8h9c5.8,0,10.2,1.3,13.2,3.8
		c3,2.6,4.5,6.2,4.5,10.8c0,3.1-0.6,5.7-1.9,7.9c-1.3,2.2-3,4-5.1,5.3c-2.1,1.4-4.5,2.4-7.2,3c-2.7,0.6-5.5,1-8.4,1
		c-3.4,0-6.5-0.3-9.2-1c-2.8-0.7-5.1-1.7-7.2-3c-2-1.3-3.6-3-4.7-5c-1.1-2-1.6-4.3-1.6-6.9c0-1.5,0.3-3.1,1-4.8
		c0.7-1.8,1.6-3.3,2.9-4.7c-1.6-1.9-2.4-4.4-2.4-7.6c0-0.8,0.1-1.6,0.4-2.5c0.3-0.9,0.6-1.8,1.2-2.7c0.5-0.9,1.2-1.8,1.9-2.6
		c0.8-0.9,1.7-1.6,2.8-2.2c-1.2-1.3-2-2.8-2.7-4.5c-0.6-1.7-1-3.6-1-5.7c0-2.5,0.5-4.8,1.4-6.8s2.3-3.7,3.9-5.1
		c1.7-1.4,3.6-2.5,5.9-3.3C536.9,84.7,539.3,84.3,541.8,84.3z M537.4,133.9c-1.5,0-3-0.1-4.5-0.4c-0.2,0.6-0.3,1.1-0.4,1.5
		c-0.1,0.4-0.1,1-0.1,1.5c0,1.8,0.9,3.2,2.6,4.2c1.7,1,4.1,1.5,7,1.5c2.4,0,4.5-0.4,6.1-1.2c1.7-0.8,2.5-2,2.5-3.6
		c0-1.5-0.6-2.5-1.8-3c-1.2-0.5-2.8-0.8-4.6-0.8H537.4z M537,100.6c0,1.4,0.4,2.6,1.3,3.5c0.9,0.9,2,1.3,3.5,1.3
		c1.4,0,2.6-0.4,3.5-1.3c0.9-0.9,1.3-2,1.3-3.5c0-1.5-0.4-2.7-1.3-3.6c-0.9-0.9-2-1.4-3.5-1.4c-1.4,0-2.6,0.5-3.5,1.4
		C537.5,98,537,99.2,537,100.6z"/>
	<path class="st1" d="M566.9,109.3c0-3.8,0.5-7.3,1.6-10.4c1.1-3.1,2.5-5.7,4.5-7.9c1.9-2.1,4.2-3.8,6.9-4.9
		c2.7-1.2,5.6-1.7,8.8-1.7c2.7,0,5.1,0.4,7.3,1.2c2.2,0.8,4,1.9,5.3,3.4v-3.8H617v48.4h-15.7v-4.1c-1.3,1.6-3.1,2.8-5.4,3.6
		c-2.3,0.8-4.6,1.2-7,1.2c-3.3,0-6.3-0.6-9-1.7c-2.7-1.2-5-2.8-7-4.9c-1.9-2.1-3.4-4.8-4.5-7.9C567.4,116.6,566.9,113.1,566.9,109.3
		z M582.2,109.3c0,2,0.3,3.7,0.8,5.1c0.5,1.4,1.3,2.6,2.2,3.6c0.9,1,2,1.7,3.2,2.1c1.2,0.4,2.5,0.7,3.7,0.7c1.3,0,2.5-0.2,3.7-0.7
		c1.2-0.4,2.2-1.2,3.2-2.1c0.9-1,1.7-2.2,2.2-3.6c0.5-1.4,0.8-3.2,0.8-5.1c0-2-0.3-3.7-0.8-5.1c-0.5-1.4-1.3-2.6-2.2-3.6
		c-0.9-1-2-1.7-3.2-2.1c-1.2-0.4-2.4-0.7-3.7-0.7c-1.3,0-2.5,0.2-3.7,0.7c-1.2,0.4-2.3,1.2-3.2,2.1c-0.9,1-1.6,2.2-2.2,3.6
		C582.5,105.6,582.2,107.3,582.2,109.3z"/>
	<path class="st1" d="M441.5,224.5c0-3.8,0.5-7.3,1.5-10.4c1-3.1,2.5-5.7,4.3-7.9c1.9-2.1,4.1-3.8,6.7-4.9c2.6-1.2,5.5-1.7,8.7-1.7
		c2.7,0,5,0.4,6.9,1.2c1.9,0.8,3.4,2,4.7,3.4v-23.4h15.7v68h-15.7v-4.1c-2.7,3.3-6.4,4.9-11.2,4.9c-3.3,0-6.2-0.6-8.9-1.7
		s-5-2.8-6.8-4.9c-1.9-2.1-3.3-4.8-4.3-7.9C442,231.8,441.5,228.3,441.5,224.5z M456.9,224.5c0,4,0.9,7,2.6,8.8s3.9,2.7,6.5,2.7
		c2.6,0,4.8-0.9,6.5-2.7s2.6-4.8,2.6-8.8c0-4-0.9-7-2.6-8.8c-1.7-1.8-3.9-2.7-6.5-2.7c-2.6,0-4.8,0.9-6.5,2.7
		C457.7,217.5,456.9,220.4,456.9,224.5z"/>
	<path class="st1" d="M512.7,228.5c0.5,2.9,1.7,5.1,3.5,6.6c1.8,1.5,4.2,2.3,7.3,2.3c4.1,0,7.3-1.7,9.5-5.2l12.1,4.4
		c-2,3.8-4.9,6.9-8.5,9.3c-3.6,2.4-8.3,3.6-14.2,3.6c-4.4,0-8.1-0.8-11.2-2.3c-3.1-1.5-5.6-3.5-7.6-5.9c-2-2.4-3.4-5.1-4.3-8
		c-0.9-2.9-1.3-5.9-1.3-8.7c0-2.9,0.5-5.8,1.5-8.7c1-2.9,2.5-5.6,4.6-8c2-2.4,4.6-4.4,7.7-5.9c3.1-1.5,6.7-2.3,10.8-2.3
		c4.4,0,8,0.8,11,2.3c3,1.5,5.4,3.5,7.3,5.9c1.9,2.4,3.2,5,4,7.8c0.8,2.8,1.2,5.5,1.2,8.1v5H512.7z M522.4,210.9
		c-2,0-3.9,0.6-5.6,1.8c-1.8,1.2-3,3.1-3.7,5.6h18.5c-0.3-2-1.3-3.8-2.8-5.2C527.2,211.7,525.1,210.9,522.4,210.9z"/>
	<path class="st1" d="M622.5,205.8c-0.5-1.4-1.2-2.8-2-4c-0.8-1.3-1.8-2.4-2.9-3.4c-1.1-1-2.4-1.7-3.9-2.3c-1.5-0.5-3.2-0.8-5.1-0.8
		c-2,0-4,0.4-5.9,1.2c-1.9,0.8-3.5,2.1-4.9,3.7c-1.4,1.7-2.6,3.7-3.4,6.2c-0.8,2.5-1.2,5.3-1.2,8.6c0,3.3,0.4,6.1,1.2,8.6
		c0.8,2.5,2,4.5,3.4,6.2c1.4,1.7,3.1,2.9,4.9,3.7c1.9,0.8,3.9,1.2,5.9,1.2c2,0,3.7-0.3,5.2-0.8c1.5-0.5,2.8-1.3,3.9-2.3
		c1.1-1,2-2.1,2.8-3.3s1.5-2.6,2-4.1l15.2,4.2c-1.9,7-5.4,12.2-10.4,15.6c-5,3.5-11.2,5.2-18.5,5.2c-4.5,0-8.7-0.7-12.7-2.2
		c-4-1.5-7.4-3.6-10.4-6.5s-5.3-6.5-7.1-10.8c-1.7-4.3-2.6-9.2-2.6-14.9s0.9-10.6,2.6-14.9c1.8-4.3,4.1-7.9,7.2-10.8
		c3-2.9,6.5-5.1,10.5-6.5c4-1.5,8.1-2.2,12.5-2.2c7.7,0,14.1,1.8,19.2,5.5c5,3.6,8.3,8.7,9.9,15.2L622.5,205.8z"/>
	<path class="st1" d="M642.6,224.5c0-3.8,0.5-7.3,1.6-10.4c1.1-3.1,2.5-5.7,4.5-7.9c1.9-2.1,4.2-3.8,6.9-4.9
		c2.7-1.2,5.6-1.7,8.8-1.7c2.7,0,5.1,0.4,7.3,1.2c2.2,0.8,4,1.9,5.3,3.4v-3.8h15.7v48.4H677v-4.1c-1.3,1.6-3.1,2.8-5.4,3.6
		c-2.3,0.8-4.6,1.2-7,1.2c-3.3,0-6.3-0.6-9-1.7c-2.7-1.2-5-2.8-7-4.9c-1.9-2.1-3.4-4.8-4.5-7.9C643.2,231.8,642.6,228.3,642.6,224.5
		z M658,224.5c0,2,0.3,3.7,0.8,5.1c0.5,1.4,1.3,2.6,2.2,3.6c0.9,1,2,1.7,3.2,2.1c1.2,0.4,2.5,0.7,3.7,0.7c1.3,0,2.5-0.2,3.7-0.7
		c1.2-0.4,2.2-1.2,3.2-2.1c0.9-1,1.7-2.2,2.2-3.6c0.5-1.4,0.8-3.2,0.8-5.1c0-2-0.3-3.7-0.8-5.1c-0.5-1.4-1.3-2.6-2.2-3.6
		c-0.9-1-2-1.7-3.2-2.1c-1.2-0.4-2.4-0.7-3.7-0.7c-1.3,0-2.5,0.2-3.7,0.7c-1.2,0.4-2.3,1.2-3.2,2.1c-0.9,1-1.6,2.2-2.2,3.6
		C658.3,220.8,658,222.5,658,224.5z"/>
	<path class="st1" d="M731.8,248.7v-29.4c0-2-0.4-3.7-1.2-4.9c-0.8-1.2-2.1-1.8-3.8-1.8c-1.2,0-2.3,0.3-3.3,0.9
		c-1.1,0.6-2,1.5-2.8,2.9c-0.8,1.3-1.4,3.1-1.9,5.3c-0.4,2.2-0.7,4.9-0.7,8.1v19h-14.6v-48.4h14.6v5.8c1.4-1.9,3.1-3.5,5.1-4.7
		c2-1.2,4.5-1.8,7.4-1.8c3.5,0,6.4,0.7,8.5,2.1c2.1,1.4,3.9,3.4,5.1,6.1c1.3-2.1,3.1-4,5.4-5.7c2.3-1.7,5.4-2.5,9.3-2.5
		c5.1,0,9,1.4,11.7,4.1c2.7,2.7,4,6.3,4,10.8v34.3h-14.6v-29.4c0-2.1-0.4-3.8-1.2-4.9c-0.8-1.2-2-1.8-3.8-1.8
		c-1.1,0-2.2,0.3-3.2,0.9c-1.1,0.6-2,1.5-2.8,2.9c-0.8,1.3-1.5,3.1-2,5.3c-0.5,2.2-0.7,4.8-0.7,8v19.1H731.8z"/>
	<path class="st1" d="M833.7,224.5c0,3.8-0.6,7.3-1.7,10.4c-1.1,3.1-2.7,5.7-4.7,7.9c-2,2.1-4.3,3.8-7.1,4.9
		c-2.7,1.2-5.7,1.7-8.9,1.7c-4.9,0-8.4-1.2-10.6-3.6v22.5h-15.7v-68h15.7v4.1c1.4-1.5,3.1-2.7,5-3.6c1.9-0.9,4.3-1.3,7.1-1.3
		c3.1,0,5.9,0.6,8.4,1.7c2.5,1.2,4.7,2.8,6.5,4.9c1.8,2.1,3.2,4.8,4.3,7.9C833.1,217.2,833.7,220.6,833.7,224.5z M818.3,224.5
		c0-4-0.9-7-2.6-8.8c-1.7-1.8-3.9-2.7-6.5-2.7c-2.6,0-4.8,0.9-6.5,2.7c-1.7,1.8-2.6,4.8-2.6,8.8c0,4,0.9,7,2.6,8.8
		c1.7,1.8,3.9,2.7,6.5,2.7c2.6,0,4.8-0.9,6.5-2.7C817.4,231.4,818.3,228.5,818.3,224.5z"/>
	<path class="st1" d="M854.9,228.5c0.5,2.9,1.7,5.1,3.5,6.6c1.8,1.5,4.2,2.3,7.3,2.3c4.1,0,7.3-1.7,9.5-5.2l12.1,4.4
		c-2,3.8-4.9,6.9-8.5,9.3c-3.6,2.4-8.3,3.6-14.2,3.6c-4.4,0-8.1-0.8-11.2-2.3c-3.1-1.5-5.6-3.5-7.6-5.9c-2-2.4-3.4-5.1-4.3-8
		c-0.9-2.9-1.3-5.9-1.3-8.7c0-2.9,0.5-5.8,1.5-8.7c1-2.9,2.5-5.6,4.6-8c2-2.4,4.6-4.4,7.7-5.9s6.7-2.3,10.8-2.3c4.4,0,8,0.8,11,2.3
		c3,1.5,5.4,3.5,7.3,5.9c1.9,2.4,3.2,5,4,7.8c0.8,2.8,1.2,5.5,1.2,8.1v5H854.9z M864.6,210.9c-2,0-3.9,0.6-5.6,1.8
		c-1.8,1.2-3,3.1-3.7,5.6h18.5c-0.3-2-1.3-3.8-2.8-5.2C869.4,211.7,867.3,210.9,864.6,210.9z"/>
	<path class="st1" d="M894.3,224.5c0-3.3,0.5-6.5,1.6-9.5c1.1-3,2.7-5.7,4.8-8c2.1-2.3,4.8-4.1,8-5.5c3.2-1.3,6.9-2,11.1-2
		c4.2,0,7.9,0.7,11.1,2c3.2,1.3,5.9,3.2,8,5.5c2.1,2.3,3.7,5,4.8,8c1.1,3,1.6,6.2,1.6,9.5c0,3.3-0.5,6.5-1.6,9.5
		c-1.1,3-2.7,5.7-4.8,8c-2.1,2.3-4.8,4.1-8,5.5s-6.9,2-11.1,2c-4.2,0-7.9-0.7-11.1-2c-3.2-1.3-5.9-3.2-8-5.5c-2.1-2.3-3.7-5-4.8-8
		C894.9,231,894.3,227.8,894.3,224.5z M910.1,224.5c0,3.5,0.8,6.2,2.4,8.4c1.6,2.1,4,3.2,7.4,3.2c3.4,0,5.9-1.1,7.4-3.2
		c1.6-2.1,2.4-4.9,2.4-8.4s-0.8-6.2-2.4-8.4c-1.6-2.1-4-3.2-7.4-3.2c-3.4,0-5.9,1.1-7.4,3.2C910.9,218.2,910.1,221,910.1,224.5z"/>
	<path class="st1" d="M969.6,200.3v5.6c1.3-1.9,3.1-3.4,5.6-4.6c2.4-1.2,5.2-1.8,8.2-1.8c5.6,0,9.6,1.4,12.2,4.2
		c2.6,2.8,3.9,6.7,3.9,11.8v33.2h-15.7v-28.6c0-2-0.5-3.6-1.4-4.8c-1-1.2-2.3-1.7-4-1.7c-2.7,0-4.8,1.2-6.3,3.5
		c-1.5,2.3-2.3,5.8-2.3,10.4v21.2h-15.7v-48.4H969.6z"/>
	<path class="st1" d="M1022,228.5c0.5,2.9,1.7,5.1,3.5,6.6c1.8,1.5,4.2,2.3,7.3,2.3c4.1,0,7.3-1.7,9.5-5.2l12.1,4.4
		c-2,3.8-4.9,6.9-8.5,9.3c-3.6,2.4-8.3,3.6-14.2,3.6c-4.4,0-8.1-0.8-11.2-2.3c-3.1-1.5-5.6-3.5-7.6-5.9c-2-2.4-3.4-5.1-4.3-8
		c-0.9-2.9-1.3-5.9-1.3-8.7c0-2.9,0.5-5.8,1.5-8.7c1-2.9,2.5-5.6,4.6-8c2-2.4,4.6-4.4,7.7-5.9s6.7-2.3,10.8-2.3c4.4,0,8,0.8,11,2.3
		c3,1.5,5.4,3.5,7.3,5.9c1.9,2.4,3.2,5,4,7.8c0.8,2.8,1.2,5.5,1.2,8.1v5H1022z M1031.7,210.9c-2,0-3.9,0.6-5.6,1.8
		c-1.8,1.2-3,3.1-3.7,5.6h18.5c-0.3-2-1.3-3.8-2.8-5.2C1036.5,211.7,1034.4,210.9,1031.7,210.9z"/>
	<path class="st1" d="M1079.8,199.5c3.8,0,7,0.7,9.6,2.2c2.6,1.5,4.7,3.4,6.3,5.9l-8.5,7.9c-2.1-2.8-4.5-4.2-7.3-4.2
		c-0.9,0-1.7,0.2-2.3,0.7c-0.6,0.5-1,1.1-1,2c0,0.9,0.4,1.7,1.3,2.4s2.3,1.4,4.4,2.1c2.4,0.8,4.5,1.6,6.4,2.4
		c1.9,0.8,3.6,1.7,4.9,2.8c1.3,1.1,2.4,2.4,3.1,3.9c0.7,1.6,1.1,3.5,1.1,5.8c0,2.2-0.4,4.2-1.2,6.2c-0.8,2-2,3.7-3.5,5.1
		c-1.5,1.5-3.4,2.6-5.6,3.5c-2.2,0.9-4.7,1.3-7.4,1.3c-2.8,0-5.2-0.4-7.4-1.1c-2.2-0.7-4.1-1.7-5.7-2.9c-1.6-1.2-3.1-2.6-4.3-4.2
		c-1.2-1.6-2.2-3.3-3.1-5l11.6-6.2c0.8,2.2,2,4,3.4,5.4c1.4,1.4,3.2,2.1,5.5,2.1c1.1,0,2.1-0.3,2.9-0.8c0.9-0.5,1.3-1.3,1.3-2.5
		c0-0.8-0.3-1.6-0.9-2.2c-0.6-0.6-1.4-1.2-2.4-1.6c-1-0.5-2.1-0.9-3.4-1.3c-1.2-0.4-2.5-0.9-3.9-1.5c-1.5-0.6-2.9-1.3-4.2-2.1
		c-1.3-0.8-2.4-1.8-3.4-2.9c-1-1.1-1.7-2.4-2.3-3.9c-0.6-1.5-0.9-3.2-0.9-5.1c0-1.9,0.4-3.6,1.2-5.3c0.8-1.7,1.9-3.2,3.3-4.5
		c1.4-1.3,3.2-2.4,5.2-3.1C1074.8,199.9,1077.2,199.5,1079.8,199.5z"/>
	<path class="st1" d="M1143.2,228.1c0.2,1.4,0.6,2.6,1.2,3.5c0.6,0.9,1.3,1.7,2.1,2.3c0.8,0.6,1.6,1,2.5,1.2
		c0.9,0.2,1.8,0.3,2.7,0.3c2.2,0,4-0.8,5.4-2.3c1.4-1.5,2.2-3.8,2.2-6.8c0-2.9-0.7-5.2-2.2-6.8c-1.4-1.7-3.4-2.5-6-2.5
		c-1.9,0-3.7,0.5-5.5,1.4c-1.7,0.9-3,2.2-3.9,3.9l-11.5-2.5l3.6-38.4h37.1v13.2h-24.8l-1.5,11.3c1.1-0.6,2.4-1,4-1.4
		c1.6-0.4,3.3-0.5,5.3-0.5c3.5,0,6.6,0.5,9.2,1.6c2.6,1.1,4.8,2.6,6.5,4.6s3,4.3,3.9,7.1c0.9,2.8,1.3,5.8,1.3,9
		c0,3.4-0.6,6.5-1.7,9.3c-1.1,2.8-2.7,5.2-4.8,7.3c-2.1,2-4.5,3.6-7.4,4.8s-6,1.7-9.5,1.7c-2.9,0-5.6-0.5-8.2-1.4
		c-2.6-0.9-4.8-2.2-6.8-3.8c-2-1.6-3.6-3.6-4.9-5.9c-1.3-2.3-2.1-4.9-2.4-7.7L1143.2,228.1z"/>
</g>
</svg>
