<?xml version="1.0" encoding="utf-8"?>
<!-- Generator: Adobe Illustrator 28.1.0, SVG Export Plug-In . SVG Version: 6.00 Build 0)  -->
<svg version="1.1" id="Capa_1" xmlns="http://www.w3.org/2000/svg" xmlns:xlink="http://www.w3.org/1999/xlink" x="0px" y="0px"
	 viewBox="0 0 1202.59 325.5" style="enable-background:new 0 0 1202.59 325.5;" xml:space="preserve">
<style type="text/css">
	.st0{fill:#020203;}
	.st1{fill:#48AD41;}
</style>
<g>
	<g>
		<g>
			<path class="st0" d="M265.83,68.75c10.39-2.67,21.53,0,29.7,6.98c11.58,9.95,16.48,24.95,20.64,39.05
				c7.57,30,8.91,61.18,3.71,91.62c-1.04,7.13-3.42,14.85-9.36,19.45c-5.35,4.45-14.11,4.6-18.86-0.89
				c-4.31-5.05-4.75-12.03-4.16-18.41c1.34-14.4,3.42-28.81,2.82-43.36c-0.3-5.35-0.89-11.14-4.16-15.59
				c-3.56-4.9-9.95-6.53-15.44-4.16c-8.46,3.86-13.81,12.18-18.12,20.2c-9.65,19.3-15.15,40.39-21.98,60.88
				c-3.56,10.25-9.36,20.2-18.41,26.58c-10.69,7.57-24.35,9.5-37.12,8.91c-15.89-0.89-30-11.14-38.16-24.35
				c-9.36-15.29-18.12-31.18-27.17-46.92c-2.67-4.45-5.64-9.21-10.1-12.03c-4.75-3.27-11.88-0.45-13.66,4.9
				c-2.23,5.64-1.63,12.03-0.74,17.82c2.67,15.74,8.91,30.44,12.62,45.88c1.34,5.79,2.08,12.32-1.48,17.52
				c-5.05,7.13-16.78,6.24-21.83-0.3c-5.05-6.53-7.72-14.4-10.54-22.13c-9.36-27.32-15.15-56.87-10.25-85.83
				c3.12-18.12,8.02-37.27,20.94-51.08c10.69-11.88,29.25-16.33,43.81-9.5c8.32,4.16,14.85,11.14,20.49,18.26
				c7.87,10.54,14.85,21.68,21.83,32.82c4.6,7.42,10.69,14.4,18.86,17.82c8.32,3.42,17.82,1.63,24.2-4.6
				c4.6-4.31,7.13-10.39,9.5-16.04c6.24-15.29,12.03-30.74,19.3-45.59C239.25,83.45,251.13,72.16,265.83,68.75z"/>
		</g>
	</g>
</g>
<rect x="388" y="2.5" class="st0" width="24" height="318"/>
<g>
	<path class="st1" d="M468.72,64.01v52.25h27.65v14.49h-44.74V64.01H468.72z"/>
	<path class="st1" d="M501.26,67.73c0-1.33,0.24-2.56,0.72-3.67c0.48-1.11,1.14-2.1,1.97-2.96c0.83-0.86,1.82-1.53,2.98-2
		c1.15-0.48,2.4-0.71,3.74-0.71c1.34,0,2.59,0.24,3.74,0.71s2.14,1.14,2.98,2c0.83,0.86,1.49,1.84,1.97,2.96
		c0.48,1.11,0.72,2.34,0.72,3.67s-0.24,2.56-0.72,3.67c-0.48,1.11-1.14,2.1-1.97,2.96c-0.83,0.86-1.82,1.53-2.98,2
		c-1.15,0.48-2.4,0.71-3.74,0.71c-1.34,0-2.59-0.24-3.74-0.71c-1.15-0.48-2.15-1.14-2.98-2c-0.83-0.86-1.49-1.84-1.97-2.96
		C501.5,70.29,501.26,69.06,501.26,67.73z M518.54,82.7v48.05H502.8V82.7H518.54z"/>
	<path class="st1" d="M548.59,81.94c3.01,0,5.86,0.54,8.54,1.62l9.7-5.05l5.28,8.87l-6.72,3.43c0.51,1.08,0.93,2.23,1.25,3.43
		c0.32,1.21,0.48,2.51,0.48,3.91c0,2.54-0.5,4.8-1.49,6.77c-0.99,1.97-2.32,3.64-3.98,5.01c-1.67,1.37-3.62,2.42-5.86,3.15
		c-2.24,0.73-4.64,1.1-7.2,1.1c-2.24,0-4.35-0.29-6.34-0.86c-0.77,0.57-1.25,1.14-1.44,1.72c-0.19,0.57-0.29,1.05-0.29,1.43
		c0,0.89,0.37,1.59,1.1,2.1c0.73,0.51,1.74,0.76,3.02,0.76h9.02c5.82,0,10.22,1.27,13.2,3.81c2.98,2.54,4.46,6.13,4.46,10.77
		c0,3.05-0.64,5.66-1.92,7.82c-1.28,2.16-2.98,3.92-5.09,5.29c-2.11,1.37-4.53,2.37-7.25,3c-2.72,0.63-5.52,0.95-8.4,0.95
		c-3.39,0-6.46-0.33-9.22-1c-2.75-0.67-5.14-1.67-7.15-3s-3.57-2.99-4.66-4.96c-1.09-1.97-1.63-4.26-1.63-6.86
		c0-1.46,0.34-3.07,1.01-4.82c0.67-1.75,1.65-3.29,2.93-4.62c-1.6-1.91-2.4-4.42-2.4-7.53c0-0.76,0.13-1.59,0.38-2.48
		c0.25-0.89,0.64-1.78,1.15-2.67c0.51-0.89,1.15-1.76,1.92-2.62c0.77-0.86,1.69-1.57,2.78-2.14c-1.15-1.27-2.05-2.77-2.69-4.48
		c-0.64-1.72-0.96-3.59-0.96-5.62c0-2.48,0.48-4.72,1.44-6.72c0.96-2,2.27-3.7,3.94-5.1c1.66-1.4,3.62-2.48,5.86-3.24
		C543.63,82.32,546.03,81.94,548.59,81.94z M544.18,131.13c-1.54,0-3.04-0.13-4.51-0.38c-0.19,0.57-0.34,1.08-0.43,1.53
		c-0.1,0.44-0.14,0.95-0.14,1.53c0,1.78,0.86,3.18,2.59,4.2c1.73,1.02,4.06,1.53,7.01,1.53c2.43,0,4.48-0.38,6.14-1.14
		c1.66-0.76,2.5-1.94,2.5-3.53c0-1.46-0.61-2.45-1.82-2.96c-1.22-0.51-2.75-0.76-4.61-0.76H544.18z M543.79,98.14
		c0,1.4,0.45,2.54,1.34,3.43c0.9,0.89,2.05,1.33,3.46,1.33c1.41,0,2.56-0.44,3.46-1.33c0.9-0.89,1.34-2.03,1.34-3.43
		c0-1.46-0.45-2.65-1.34-3.58c-0.9-0.92-2.05-1.38-3.46-1.38c-1.41,0-2.56,0.46-3.46,1.38C544.24,95.49,543.79,96.68,543.79,98.14z"
		/>
	<path class="st1" d="M573.65,106.72c0-3.81,0.53-7.26,1.58-10.34c1.06-3.08,2.54-5.69,4.46-7.82c1.92-2.13,4.21-3.77,6.86-4.91
		c2.65-1.14,5.58-1.72,8.78-1.72c2.69,0,5.14,0.4,7.34,1.19c2.21,0.8,3.98,1.92,5.33,3.38V82.7h15.74v48.05h-15.74v-4.1
		c-1.28,1.59-3.07,2.8-5.38,3.62c-2.3,0.83-4.64,1.24-7.01,1.24c-3.26,0-6.26-0.57-8.98-1.72c-2.72-1.14-5.04-2.78-6.96-4.91
		c-1.92-2.13-3.41-4.73-4.46-7.82S573.65,110.54,573.65,106.72z M589.01,106.72c0,1.97,0.27,3.67,0.82,5.1
		c0.54,1.43,1.26,2.62,2.16,3.58c0.9,0.95,1.95,1.65,3.17,2.1c1.21,0.45,2.46,0.67,3.74,0.67c1.28,0,2.51-0.22,3.7-0.67
		c1.18-0.44,2.24-1.14,3.17-2.1c0.93-0.95,1.66-2.15,2.21-3.58c0.54-1.43,0.82-3.13,0.82-5.1c0-1.97-0.27-3.67-0.82-5.1
		c-0.54-1.43-1.28-2.62-2.21-3.58c-0.93-0.95-1.98-1.65-3.17-2.1c-1.19-0.44-2.42-0.67-3.7-0.67c-1.28,0-2.53,0.22-3.74,0.67
		c-1.22,0.45-2.27,1.14-3.17,2.1c-0.9,0.95-1.62,2.15-2.16,3.58C589.28,103.05,589.01,104.76,589.01,106.72z"/>
	<path class="st1" d="M448.27,221.14c0-3.81,0.51-7.26,1.54-10.34c1.02-3.08,2.46-5.69,4.32-7.82c1.86-2.13,4.09-3.77,6.72-4.91
		c2.62-1.14,5.54-1.72,8.74-1.72c2.69,0,4.98,0.41,6.86,1.24c1.89,0.83,3.44,1.94,4.66,3.34v-23.26h15.74v67.5h-15.74v-4.1
		c-2.69,3.24-6.43,4.86-11.23,4.86c-3.26,0-6.24-0.57-8.93-1.72s-4.96-2.78-6.82-4.91c-1.86-2.13-3.3-4.73-4.32-7.82
		C448.78,228.4,448.27,224.95,448.27,221.14z M463.63,221.14c0,4,0.86,6.91,2.59,8.72s3.9,2.72,6.53,2.72c2.62,0,4.8-0.91,6.53-2.72
		s2.59-4.72,2.59-8.72c0-4-0.86-6.91-2.59-8.72s-3.9-2.72-6.53-2.72c-2.62,0-4.8,0.91-6.53,2.72S463.63,217.13,463.63,221.14z"/>
	<path class="st1" d="M519.51,225.14c0.51,2.86,1.66,5.04,3.46,6.53c1.79,1.49,4.22,2.24,7.3,2.24c4.09,0,7.26-1.72,9.5-5.15
		l12.1,4.39c-2.05,3.75-4.88,6.82-8.5,9.2c-3.62,2.38-8.34,3.58-14.16,3.58c-4.35,0-8.08-0.76-11.18-2.29
		c-3.1-1.53-5.63-3.48-7.58-5.86c-1.95-2.38-3.38-5.04-4.27-7.96c-0.9-2.92-1.34-5.82-1.34-8.68s0.49-5.75,1.49-8.68
		c0.99-2.92,2.51-5.58,4.56-7.96c2.05-2.38,4.61-4.34,7.68-5.86c3.07-1.53,6.69-2.29,10.85-2.29c4.35,0,8.03,0.76,11.04,2.29
		c3.01,1.53,5.44,3.46,7.3,5.82c1.86,2.35,3.18,4.93,3.98,7.72c0.8,2.8,1.2,5.47,1.2,8.01v4.96H519.51z M529.2,207.69
		c-1.98,0-3.86,0.59-5.62,1.76c-1.76,1.18-2.99,3.04-3.7,5.58h18.53c-0.32-2.03-1.26-3.77-2.83-5.2
		C534.02,208.41,531.89,207.69,529.2,207.69z"/>
	<path class="st1" d="M629.23,202.55c-0.51-1.4-1.17-2.73-1.97-4c-0.8-1.27-1.76-2.38-2.88-3.34c-1.12-0.95-2.43-1.7-3.94-2.24
		c-1.5-0.54-3.22-0.81-5.14-0.81c-2.05,0-4,0.41-5.86,1.24c-1.86,0.83-3.5,2.07-4.94,3.72c-1.44,1.65-2.58,3.7-3.41,6.15
		c-0.83,2.45-1.25,5.29-1.25,8.53s0.42,6.09,1.25,8.53c0.83,2.45,1.95,4.5,3.36,6.15c1.41,1.65,3.06,2.89,4.94,3.72
		c1.89,0.83,3.85,1.24,5.9,1.24c1.98,0,3.73-0.27,5.23-0.81c1.5-0.54,2.8-1.29,3.89-2.24c1.09-0.95,2.03-2.05,2.83-3.29
		c0.8-1.24,1.46-2.59,1.97-4.05l15.17,4.2c-1.92,6.93-5.38,12.11-10.37,15.54c-4.99,3.43-11.17,5.15-18.53,5.15
		c-4.48,0-8.7-0.73-12.67-2.19c-3.97-1.46-7.44-3.62-10.42-6.48s-5.33-6.42-7.06-10.68c-1.73-4.26-2.59-9.18-2.59-14.78
		c0-5.59,0.88-10.52,2.64-14.78c1.76-4.26,4.14-7.82,7.15-10.68c3.01-2.86,6.49-5.02,10.46-6.48c3.97-1.46,8.13-2.19,12.48-2.19
		c7.74,0,14.13,1.81,19.15,5.43c5.02,3.62,8.34,8.64,9.94,15.06L629.23,202.55z"/>
	<path class="st1" d="M649.39,221.14c0-3.81,0.53-7.26,1.58-10.34c1.06-3.08,2.54-5.69,4.46-7.82c1.92-2.13,4.21-3.77,6.86-4.91
		c2.65-1.14,5.58-1.72,8.78-1.72c2.69,0,5.14,0.4,7.34,1.19c2.21,0.8,3.98,1.92,5.33,3.38v-3.81h15.74v48.05h-15.74v-4.1
		c-1.28,1.59-3.07,2.8-5.38,3.62c-2.3,0.83-4.64,1.24-7.01,1.24c-3.26,0-6.26-0.57-8.98-1.72c-2.72-1.14-5.04-2.78-6.96-4.91
		c-1.92-2.13-3.41-4.73-4.46-7.82C649.92,228.4,649.39,224.95,649.39,221.14z M664.75,221.14c0,1.97,0.27,3.67,0.82,5.1
		c0.54,1.43,1.26,2.62,2.16,3.58c0.9,0.95,1.95,1.65,3.17,2.1c1.21,0.45,2.46,0.67,3.74,0.67c1.28,0,2.51-0.22,3.7-0.67
		c1.18-0.44,2.24-1.14,3.17-2.1c0.93-0.95,1.66-2.14,2.21-3.58c0.54-1.43,0.82-3.13,0.82-5.1c0-1.97-0.27-3.67-0.82-5.1
		c-0.54-1.43-1.28-2.62-2.21-3.58c-0.93-0.95-1.98-1.65-3.17-2.1c-1.19-0.44-2.42-0.67-3.7-0.67c-1.28,0-2.53,0.22-3.74,0.67
		c-1.22,0.45-2.27,1.14-3.17,2.1c-0.9,0.95-1.62,2.15-2.16,3.58C665.02,217.47,664.75,219.17,664.75,221.14z"/>
	<path class="st1" d="M738.57,245.16v-29.17c0-2.03-0.42-3.65-1.25-4.86c-0.83-1.21-2.11-1.81-3.84-1.81
		c-1.15,0-2.26,0.29-3.31,0.86s-1.98,1.53-2.78,2.86c-0.8,1.33-1.42,3.08-1.87,5.24c-0.45,2.16-0.67,4.83-0.67,8.01v18.88h-14.59
		v-48.05h14.59v5.72c1.41-1.91,3.12-3.46,5.14-4.67c2.02-1.21,4.5-1.81,7.44-1.81c3.52,0,6.35,0.68,8.5,2.05
		c2.14,1.37,3.85,3.38,5.14,6.05c1.28-2.1,3.09-3.97,5.42-5.62c2.34-1.65,5.42-2.48,9.26-2.48c5.12,0,9.02,1.35,11.71,4.05
		c2.69,2.7,4.03,6.28,4.03,10.73v34.04h-14.59v-29.17c0-2.1-0.38-3.73-1.15-4.91c-0.77-1.18-2.05-1.76-3.84-1.76
		c-1.09,0-2.16,0.29-3.22,0.86c-1.06,0.57-2,1.53-2.83,2.86c-0.83,1.33-1.49,3.08-1.97,5.24c-0.48,2.16-0.72,4.8-0.72,7.91v18.97
		H738.57z"/>
	<path class="st1" d="M840.43,221.14c0,3.81-0.56,7.26-1.68,10.34c-1.12,3.08-2.67,5.69-4.66,7.82c-1.99,2.13-4.34,3.77-7.06,4.91
		c-2.72,1.14-5.68,1.72-8.88,1.72c-4.86,0-8.38-1.21-10.56-3.62v22.31h-15.74v-67.5h15.74v4.1c1.41-1.53,3.07-2.72,4.99-3.58
		c1.92-0.86,4.29-1.29,7.1-1.29c3.07,0,5.87,0.57,8.4,1.72c2.53,1.14,4.7,2.78,6.53,4.91c1.82,2.13,3.25,4.74,4.27,7.82
		C839.92,213.88,840.43,217.32,840.43,221.14z M825.07,221.14c0-4-0.86-6.91-2.59-8.72c-1.73-1.81-3.9-2.72-6.53-2.72
		c-2.62,0-4.8,0.91-6.53,2.72c-1.73,1.81-2.59,4.72-2.59,8.72c0,4,0.86,6.91,2.59,8.72c1.73,1.81,3.9,2.72,6.53,2.72
		c2.62,0,4.8-0.91,6.53-2.72C824.21,228.05,825.07,225.14,825.07,221.14z"/>
	<path class="st1" d="M861.64,225.14c0.51,2.86,1.66,5.04,3.46,6.53c1.79,1.49,4.22,2.24,7.3,2.24c4.09,0,7.26-1.72,9.5-5.15
		l12.1,4.39c-2.05,3.75-4.88,6.82-8.5,9.2c-3.62,2.38-8.34,3.58-14.16,3.58c-4.35,0-8.08-0.76-11.18-2.29
		c-3.1-1.53-5.63-3.48-7.58-5.86c-1.95-2.38-3.38-5.04-4.27-7.96c-0.9-2.92-1.34-5.82-1.34-8.68s0.5-5.75,1.49-8.68
		c0.99-2.92,2.51-5.58,4.56-7.96c2.05-2.38,4.61-4.34,7.68-5.86s6.69-2.29,10.85-2.29c4.35,0,8.03,0.76,11.04,2.29
		c3.01,1.53,5.44,3.46,7.3,5.82c1.86,2.35,3.18,4.93,3.98,7.72c0.8,2.8,1.2,5.47,1.2,8.01v4.96H861.64z M871.34,207.69
		c-1.99,0-3.86,0.59-5.62,1.76c-1.76,1.18-2.99,3.04-3.7,5.58h18.53c-0.32-2.03-1.26-3.77-2.83-5.2
		C876.16,208.41,874.03,207.69,871.34,207.69z"/>
	<path class="st1" d="M901.1,221.14c0-3.3,0.54-6.45,1.63-9.44c1.09-2.99,2.69-5.62,4.8-7.91c2.11-2.29,4.77-4.1,7.97-5.43
		c3.2-1.33,6.91-2,11.14-2c4.22,0,7.94,0.67,11.14,2s5.86,3.15,7.97,5.43c2.11,2.29,3.71,4.93,4.8,7.91
		c1.09,2.99,1.63,6.13,1.63,9.44c0,3.31-0.54,6.45-1.63,9.44c-1.09,2.99-2.69,5.62-4.8,7.91c-2.11,2.29-4.77,4.1-7.97,5.43
		s-6.91,2-11.14,2c-4.22,0-7.94-0.67-11.14-2c-3.2-1.33-5.86-3.15-7.97-5.43c-2.11-2.29-3.71-4.92-4.8-7.91
		C901.64,227.59,901.1,224.44,901.1,221.14z M916.84,221.14c0,3.43,0.78,6.2,2.35,8.29c1.57,2.1,4.05,3.15,7.44,3.15
		c3.39,0,5.87-1.05,7.44-3.15c1.57-2.1,2.35-4.86,2.35-8.29s-0.78-6.2-2.35-8.29c-1.57-2.1-4.05-3.15-7.44-3.15
		c-3.39,0-5.87,1.05-7.44,3.15C917.63,214.94,916.84,217.71,916.84,221.14z"/>
	<path class="st1" d="M976.36,197.11v5.53c1.28-1.84,3.13-3.35,5.57-4.53c2.43-1.18,5.15-1.76,8.16-1.76
		c5.57,0,9.65,1.38,12.24,4.15c2.59,2.76,3.89,6.66,3.89,11.68v32.99h-15.74v-28.41c0-2.03-0.48-3.62-1.44-4.77
		c-0.96-1.14-2.3-1.72-4.03-1.72c-2.69,0-4.8,1.16-6.34,3.48c-1.54,2.32-2.3,5.77-2.3,10.35v21.07h-15.74v-48.05H976.36z"/>
	<path class="st1" d="M1028.78,225.14c0.51,2.86,1.66,5.04,3.46,6.53c1.79,1.49,4.22,2.24,7.3,2.24c4.09,0,7.26-1.72,9.5-5.15
		l12.1,4.39c-2.05,3.75-4.88,6.82-8.5,9.2c-3.62,2.38-8.34,3.58-14.16,3.58c-4.35,0-8.08-0.76-11.18-2.29
		c-3.1-1.53-5.63-3.48-7.58-5.86c-1.95-2.38-3.38-5.04-4.27-7.96c-0.9-2.92-1.34-5.82-1.34-8.68s0.5-5.75,1.49-8.68
		c0.99-2.92,2.51-5.58,4.56-7.96c2.05-2.38,4.61-4.34,7.68-5.86s6.69-2.29,10.85-2.29c4.35,0,8.03,0.76,11.04,2.29
		c3.01,1.53,5.44,3.46,7.3,5.82c1.86,2.35,3.18,4.93,3.98,7.72c0.8,2.8,1.2,5.47,1.2,8.01v4.96H1028.78z M1038.47,207.69
		c-1.99,0-3.86,0.59-5.62,1.76c-1.76,1.18-2.99,3.04-3.7,5.58h18.53c-0.32-2.03-1.26-3.77-2.83-5.2
		C1043.29,208.41,1041.16,207.69,1038.47,207.69z"/>
	<path class="st1" d="M1086.57,196.35c3.78,0,6.97,0.73,9.6,2.19c2.62,1.46,4.74,3.4,6.34,5.82l-8.54,7.82
		c-2.11-2.8-4.54-4.2-7.3-4.2c-0.9,0-1.67,0.24-2.3,0.71c-0.64,0.48-0.96,1.13-0.96,1.95c0,0.89,0.43,1.69,1.3,2.38
		c0.86,0.7,2.32,1.4,4.37,2.1c2.37,0.76,4.51,1.54,6.43,2.34c1.92,0.8,3.55,1.72,4.9,2.76s2.38,2.35,3.12,3.91
		c0.73,1.56,1.1,3.48,1.1,5.77c0,2.16-0.4,4.21-1.2,6.15c-0.8,1.94-1.97,3.64-3.5,5.1c-1.54,1.46-3.41,2.62-5.62,3.48
		c-2.21,0.86-4.69,1.29-7.44,1.29c-2.75,0-5.22-0.35-7.39-1.05c-2.18-0.7-4.08-1.65-5.71-2.86c-1.63-1.21-3.06-2.61-4.27-4.19
		c-1.22-1.59-2.24-3.24-3.07-4.96l11.62-6.2c0.83,2.23,1.95,4.02,3.36,5.39c1.41,1.37,3.23,2.05,5.47,2.05
		c1.09,0,2.06-0.25,2.93-0.76c0.86-0.51,1.3-1.33,1.3-2.48c0-0.83-0.29-1.54-0.86-2.14c-0.58-0.6-1.36-1.14-2.35-1.62
		c-0.99-0.48-2.11-0.92-3.36-1.33c-1.25-0.41-2.54-0.91-3.89-1.48c-1.47-0.57-2.87-1.27-4.18-2.1c-1.31-0.83-2.45-1.79-3.41-2.91
		c-0.96-1.11-1.73-2.4-2.3-3.86c-0.58-1.46-0.86-3.15-0.86-5.05c0-1.84,0.38-3.61,1.15-5.29c0.77-1.68,1.87-3.18,3.31-4.48
		c1.44-1.3,3.18-2.34,5.23-3.1C1081.61,196.73,1083.95,196.35,1086.57,196.35z"/>
	<path class="st1" d="M1149.16,223.9c0.58,2.42,1.57,4.47,2.98,6.15c1.41,1.68,3.55,2.53,6.43,2.53c2.43,0,4.46-0.79,6.1-2.38
		c1.63-1.59,2.45-3.78,2.45-6.58c0-2.73-0.85-4.97-2.54-6.72c-1.7-1.75-3.86-2.62-6.48-2.62c-0.9,0-1.89,0.11-2.98,0.33
		c-1.09,0.22-2.02,0.56-2.78,1l-6.34-8.87l11.33-15.16h-19.58v-13.16h40.03v6.29l-14.4,18.97c2.75,0,5.28,0.41,7.58,1.24
		c2.3,0.83,4.27,2.08,5.9,3.77c1.63,1.68,2.89,3.77,3.79,6.25c0.9,2.48,1.34,5.34,1.34,8.58c0,3.43-0.59,6.53-1.78,9.3
		c-1.19,2.76-2.83,5.12-4.94,7.06c-2.11,1.94-4.59,3.43-7.44,4.48s-5.94,1.57-9.26,1.57c-3.65,0-6.9-0.51-9.74-1.53
		c-2.85-1.02-5.26-2.43-7.25-4.24c-1.98-1.81-3.57-3.92-4.75-6.34c-1.18-2.42-1.91-5.02-2.16-7.82L1149.16,223.9z"/>
</g>
</svg>
