<?xml version="1.0" encoding="utf-8"?>
<!-- Generator: Adobe Illustrator 28.1.0, SVG Export Plug-In . SVG Version: 6.00 Build 0)  -->
<svg version="1.1" id="Capa_1" xmlns="http://www.w3.org/2000/svg" xmlns:xlink="http://www.w3.org/1999/xlink" x="0px" y="0px"
	 viewBox="0 0 1202.6 325.5" style="enable-background:new 0 0 1202.6 325.5;" xml:space="preserve">
<style type="text/css">
	.st0{fill:#020203;}
	.st1{fill:#48AD41;}
</style>
<g>
	<g>
		<g>
			<path class="st0" d="M265.8,68.8c10.4-2.7,21.5,0,29.7,7c11.6,9.9,16.5,25,20.6,39c7.6,30,8.9,61.2,3.7,91.6
				c-1,7.1-3.4,14.9-9.4,19.4c-5.4,4.4-14.1,4.6-18.9-0.9c-4.3-5.1-4.8-12-4.2-18.4c1.3-14.4,3.4-28.8,2.8-43.4
				c-0.3-5.4-0.9-11.1-4.2-15.6c-3.6-4.9-10-6.5-15.4-4.2c-8.5,3.9-13.8,12.2-18.1,20.2c-9.6,19.3-15.1,40.4-22,60.9
				c-3.6,10.2-9.4,20.2-18.4,26.6c-10.7,7.6-24.4,9.5-37.1,8.9c-15.9-0.9-30-11.1-38.2-24.4c-9.4-15.3-18.1-31.2-27.2-46.9
				c-2.7-4.4-5.6-9.2-10.1-12c-4.8-3.3-11.9-0.4-13.7,4.9c-2.2,5.6-1.6,12-0.7,17.8c2.7,15.7,8.9,30.4,12.6,45.9
				c1.3,5.8,2.1,12.3-1.5,17.5c-5.1,7.1-16.8,6.2-21.8-0.3c-5.1-6.5-7.7-14.4-10.5-22.1c-9.4-27.3-15.2-56.9-10.2-85.8
				c3.1-18.1,8-37.3,20.9-51.1C85.4,91.6,104,87.2,118.5,94c8.3,4.2,14.9,11.1,20.5,18.3c7.9,10.5,14.9,21.7,21.8,32.8
				c4.6,7.4,10.7,14.4,18.9,17.8c8.3,3.4,17.8,1.6,24.2-4.6c4.6-4.3,7.1-10.4,9.5-16c6.2-15.3,12-30.7,19.3-45.6
				C239.2,83.4,251.1,72.2,265.8,68.8z"/>
		</g>
	</g>
</g>
<rect x="388" y="2.5" class="st0" width="24" height="318"/>
<g>
	<path class="st1" d="M461.3,66.3v52.5H488v14.6h-43.2V66.3H461.3z"/>
	<path class="st1" d="M492.7,70c0-1.3,0.2-2.6,0.7-3.7c0.5-1.1,1.1-2.1,1.9-3c0.8-0.9,1.8-1.5,2.9-2c1.1-0.5,2.3-0.7,3.6-0.7
		c1.3,0,2.5,0.2,3.6,0.7c1.1,0.5,2.1,1.1,2.9,2c0.8,0.9,1.4,1.9,1.9,3c0.5,1.1,0.7,2.3,0.7,3.7c0,1.3-0.2,2.6-0.7,3.7
		c-0.5,1.1-1.1,2.1-1.9,3c-0.8,0.9-1.8,1.5-2.9,2c-1.1,0.5-2.3,0.7-3.6,0.7c-1.3,0-2.5-0.2-3.6-0.7c-1.1-0.5-2.1-1.1-2.9-2
		c-0.8-0.9-1.4-1.9-1.9-3C493,72.6,492.7,71.3,492.7,70z M509.4,85v48.3h-15.2V85H509.4z"/>
	<path class="st1" d="M538.5,84.3c2.9,0,5.7,0.5,8.3,1.6l9.4-5.1l5.1,8.9l-6.5,3.4c0.5,1.1,0.9,2.2,1.2,3.4c0.3,1.2,0.5,2.5,0.5,3.9
		c0,2.6-0.5,4.8-1.4,6.8c-1,2-2.2,3.7-3.9,5c-1.6,1.4-3.5,2.4-5.7,3.2c-2.2,0.7-4.5,1.1-7,1.1c-2.2,0-4.2-0.3-6.1-0.9
		c-0.7,0.6-1.2,1.1-1.4,1.7c-0.2,0.6-0.3,1.1-0.3,1.4c0,0.9,0.4,1.6,1.1,2.1c0.7,0.5,1.7,0.8,2.9,0.8h8.7c5.6,0,9.9,1.3,12.8,3.8
		c2.9,2.6,4.3,6.2,4.3,10.8c0,3.1-0.6,5.7-1.9,7.9c-1.2,2.2-2.9,3.9-4.9,5.3c-2,1.4-4.4,2.4-7,3c-2.6,0.6-5.3,1-8.1,1
		c-3.3,0-6.2-0.3-8.9-1c-2.7-0.7-5-1.7-6.9-3c-1.9-1.3-3.4-3-4.5-5c-1.1-2-1.6-4.3-1.6-6.9c0-1.5,0.3-3.1,1-4.8
		c0.6-1.8,1.6-3.3,2.8-4.6c-1.5-1.9-2.3-4.4-2.3-7.6c0-0.8,0.1-1.6,0.4-2.5c0.2-0.9,0.6-1.8,1.1-2.7c0.5-0.9,1.1-1.8,1.9-2.6
		c0.7-0.9,1.6-1.6,2.7-2.2c-1.1-1.3-2-2.8-2.6-4.5c-0.6-1.7-0.9-3.6-0.9-5.7c0-2.5,0.5-4.7,1.4-6.8c0.9-2,2.2-3.7,3.8-5.1
		c1.6-1.4,3.5-2.5,5.7-3.3C533.7,84.6,536,84.3,538.5,84.3z M534.2,133.7c-1.5,0-2.9-0.1-4.4-0.4c-0.2,0.6-0.3,1.1-0.4,1.5
		c-0.1,0.4-0.1,1-0.1,1.5c0,1.8,0.8,3.2,2.5,4.2c1.7,1,3.9,1.5,6.8,1.5c2.4,0,4.3-0.4,5.9-1.1c1.6-0.8,2.4-1.9,2.4-3.5
		c0-1.5-0.6-2.5-1.8-3c-1.2-0.5-2.7-0.8-4.5-0.8H534.2z M533.8,100.6c0,1.4,0.4,2.6,1.3,3.4c0.9,0.9,2,1.3,3.3,1.3
		c1.4,0,2.5-0.4,3.3-1.3c0.9-0.9,1.3-2,1.3-3.4c0-1.5-0.4-2.7-1.3-3.6c-0.9-0.9-2-1.4-3.3-1.4c-1.4,0-2.5,0.5-3.3,1.4
		C534.3,97.9,533.8,99.1,533.8,100.6z"/>
	<path class="st1" d="M562.7,109.2c0-3.8,0.5-7.3,1.5-10.4c1-3.1,2.5-5.7,4.3-7.9c1.9-2.1,4.1-3.8,6.6-4.9c2.6-1.1,5.4-1.7,8.5-1.7
		c2.6,0,5,0.4,7.1,1.2c2.1,0.8,3.9,1.9,5.2,3.4V85h15.2v48.3h-15.2v-4.1c-1.2,1.6-3,2.8-5.2,3.6c-2.2,0.8-4.5,1.2-6.8,1.2
		c-3.2,0-6-0.6-8.7-1.7c-2.6-1.1-4.9-2.8-6.7-4.9c-1.9-2.1-3.3-4.8-4.3-7.9C563.2,116.5,562.7,113,562.7,109.2z M577.5,109.2
		c0,2,0.3,3.7,0.8,5.1c0.5,1.4,1.2,2.6,2.1,3.6c0.9,1,1.9,1.7,3.1,2.1c1.2,0.4,2.4,0.7,3.6,0.7c1.2,0,2.4-0.2,3.6-0.7
		c1.1-0.4,2.2-1.1,3.1-2.1c0.9-1,1.6-2.2,2.1-3.6c0.5-1.4,0.8-3.1,0.8-5.1c0-2-0.3-3.7-0.8-5.1c-0.5-1.4-1.2-2.6-2.1-3.6
		c-0.9-1-1.9-1.7-3.1-2.1c-1.1-0.4-2.3-0.7-3.6-0.7c-1.2,0-2.4,0.2-3.6,0.7c-1.2,0.4-2.2,1.1-3.1,2.1c-0.9,1-1.6,2.2-2.1,3.6
		C577.8,105.5,577.5,107.2,577.5,109.2z"/>
	<path class="st1" d="M441.5,224.1c0-3.8,0.5-7.3,1.5-10.4c1-3.1,2.4-5.7,4.2-7.9c1.8-2.1,4-3.8,6.5-4.9c2.5-1.1,5.4-1.7,8.4-1.7
		c2.6,0,4.8,0.4,6.6,1.2c1.8,0.8,3.3,1.9,4.5,3.4v-23.4h15.2v67.8h-15.2v-4.1c-2.6,3.3-6.2,4.9-10.9,4.9c-3.2,0-6-0.6-8.6-1.7
		c-2.6-1.1-4.8-2.8-6.6-4.9c-1.8-2.1-3.2-4.8-4.2-7.9C442,231.4,441.5,228,441.5,224.1z M456.4,224.1c0,4,0.8,6.9,2.5,8.8
		c1.7,1.8,3.8,2.7,6.3,2.7c2.5,0,4.6-0.9,6.3-2.7c1.7-1.8,2.5-4.7,2.5-8.8c0-4-0.8-6.9-2.5-8.8c-1.7-1.8-3.8-2.7-6.3-2.7
		c-2.5,0-4.6,0.9-6.3,2.7C457.2,217.2,456.4,220.1,456.4,224.1z"/>
	<path class="st1" d="M510.4,228.2c0.5,2.9,1.6,5.1,3.3,6.6c1.7,1.5,4.1,2.3,7.1,2.3c4,0,7-1.7,9.2-5.2l11.7,4.4
		c-2,3.8-4.7,6.8-8.2,9.2c-3.5,2.4-8.1,3.6-13.7,3.6c-4.2,0-7.8-0.8-10.8-2.3c-3-1.5-5.4-3.5-7.3-5.9c-1.9-2.4-3.3-5.1-4.1-8
		c-0.9-2.9-1.3-5.8-1.3-8.7c0-2.9,0.5-5.8,1.4-8.7c1-2.9,2.4-5.6,4.4-8c2-2.4,4.5-4.4,7.4-5.9c3-1.5,6.5-2.3,10.5-2.3
		c4.2,0,7.8,0.8,10.7,2.3c2.9,1.5,5.3,3.5,7.1,5.8c1.8,2.4,3.1,5,3.9,7.8c0.8,2.8,1.2,5.5,1.2,8v5H510.4z M519.7,210.6
		c-1.9,0-3.7,0.6-5.4,1.8c-1.7,1.2-2.9,3.1-3.6,5.6h17.9c-0.3-2-1.2-3.8-2.7-5.2C524.4,211.3,522.3,210.6,519.7,210.6z"/>
	<path class="st1" d="M616.4,205.5c-0.5-1.4-1.1-2.7-1.9-4c-0.8-1.3-1.7-2.4-2.8-3.4c-1.1-1-2.4-1.7-3.8-2.3c-1.5-0.5-3.1-0.8-5-0.8
		c-2,0-3.9,0.4-5.7,1.2c-1.8,0.8-3.4,2.1-4.8,3.7c-1.4,1.7-2.5,3.7-3.3,6.2c-0.8,2.5-1.2,5.3-1.2,8.6c0,3.3,0.4,6.1,1.2,8.6
		c0.8,2.5,1.9,4.5,3.2,6.2c1.4,1.7,3,2.9,4.8,3.7c1.8,0.8,3.7,1.2,5.7,1.2c1.9,0,3.6-0.3,5.1-0.8c1.5-0.5,2.7-1.3,3.8-2.3
		c1.1-1,2-2.1,2.7-3.3c0.8-1.2,1.4-2.6,1.9-4.1l14.7,4.2c-1.9,7-5.2,12.2-10,15.6c-4.8,3.4-10.8,5.2-17.9,5.2
		c-4.3,0-8.4-0.7-12.2-2.2c-3.8-1.5-7.2-3.6-10.1-6.5c-2.9-2.9-5.2-6.5-6.8-10.7c-1.7-4.3-2.5-9.2-2.5-14.8c0-5.6,0.8-10.6,2.6-14.8
		c1.7-4.3,4-7.9,6.9-10.7c2.9-2.9,6.3-5,10.1-6.5c3.8-1.5,7.9-2.2,12.1-2.2c7.5,0,13.7,1.8,18.5,5.5c4.9,3.6,8.1,8.7,9.6,15.1
		L616.4,205.5z"/>
	<path class="st1" d="M635.9,224.1c0-3.8,0.5-7.3,1.5-10.4c1-3.1,2.5-5.7,4.3-7.9c1.9-2.1,4.1-3.8,6.6-4.9c2.6-1.1,5.4-1.7,8.5-1.7
		c2.6,0,5,0.4,7.1,1.2c2.1,0.8,3.9,1.9,5.2,3.4V200h15.2v48.3h-15.2v-4.1c-1.2,1.6-3,2.8-5.2,3.6c-2.2,0.8-4.5,1.2-6.8,1.2
		c-3.2,0-6-0.6-8.7-1.7c-2.6-1.1-4.9-2.8-6.7-4.9c-1.9-2.1-3.3-4.8-4.3-7.9C636.4,231.4,635.9,228,635.9,224.1z M650.8,224.1
		c0,2,0.3,3.7,0.8,5.1c0.5,1.4,1.2,2.6,2.1,3.6c0.9,1,1.9,1.7,3.1,2.1c1.2,0.4,2.4,0.7,3.6,0.7c1.2,0,2.4-0.2,3.6-0.7
		c1.1-0.4,2.2-1.1,3.1-2.1c0.9-1,1.6-2.2,2.1-3.6c0.5-1.4,0.8-3.1,0.8-5.1c0-2-0.3-3.7-0.8-5.1c-0.5-1.4-1.2-2.6-2.1-3.6
		c-0.9-1-1.9-1.7-3.1-2.1c-1.1-0.4-2.3-0.7-3.6-0.7c-1.2,0-2.4,0.2-3.6,0.7c-1.2,0.4-2.2,1.1-3.1,2.1c-0.9,1-1.6,2.2-2.1,3.6
		C651,220.4,650.8,222.2,650.8,224.1z"/>
	<path class="st1" d="M722.1,248.3V219c0-2-0.4-3.7-1.2-4.9c-0.8-1.2-2-1.8-3.7-1.8c-1.1,0-2.2,0.3-3.2,0.9c-1,0.6-1.9,1.5-2.7,2.9
		c-0.8,1.3-1.4,3.1-1.8,5.3c-0.4,2.2-0.6,4.9-0.6,8v19h-14.1V200h14.1v5.7c1.4-1.9,3-3.5,5-4.7c1.9-1.2,4.3-1.8,7.2-1.8
		c3.4,0,6.1,0.7,8.2,2.1c2.1,1.4,3.7,3.4,5,6.1c1.2-2.1,3-4,5.2-5.7c2.3-1.7,5.2-2.5,9-2.5c4.9,0,8.7,1.4,11.3,4.1
		c2.6,2.7,3.9,6.3,3.9,10.8v34.2h-14.1V219c0-2.1-0.4-3.8-1.1-4.9c-0.7-1.2-2-1.8-3.7-1.8c-1.1,0-2.1,0.3-3.1,0.9
		c-1,0.6-1.9,1.5-2.7,2.9c-0.8,1.3-1.4,3.1-1.9,5.3c-0.5,2.2-0.7,4.8-0.7,8v19.1H722.1z"/>
	<path class="st1" d="M820.6,224.1c0,3.8-0.5,7.3-1.6,10.4c-1.1,3.1-2.6,5.7-4.5,7.9c-1.9,2.1-4.2,3.8-6.8,4.9
		c-2.6,1.1-5.5,1.7-8.6,1.7c-4.7,0-8.1-1.2-10.2-3.6v22.4h-15.2V200h15.2v4.1c1.4-1.5,3-2.7,4.8-3.6c1.9-0.9,4.1-1.3,6.9-1.3
		c3,0,5.7,0.6,8.1,1.7c2.4,1.1,4.5,2.8,6.3,4.9c1.8,2.1,3.1,4.8,4.1,7.9C820.1,216.8,820.6,220.3,820.6,224.1z M805.7,224.1
		c0-4-0.8-6.9-2.5-8.8c-1.7-1.8-3.8-2.7-6.3-2.7c-2.5,0-4.6,0.9-6.3,2.7c-1.7,1.8-2.5,4.7-2.5,8.8c0,4,0.8,6.9,2.5,8.8
		c1.7,1.8,3.8,2.7,6.3,2.7c2.5,0,4.6-0.9,6.3-2.7C804.9,231.1,805.7,228.2,805.7,224.1z"/>
	<path class="st1" d="M841.1,228.2c0.5,2.9,1.6,5.1,3.3,6.6c1.7,1.5,4.1,2.3,7.1,2.3c4,0,7-1.7,9.2-5.2l11.7,4.4
		c-2,3.8-4.7,6.8-8.2,9.2c-3.5,2.4-8.1,3.6-13.7,3.6c-4.2,0-7.8-0.8-10.8-2.3c-3-1.5-5.4-3.5-7.3-5.9c-1.9-2.4-3.3-5.1-4.1-8
		c-0.9-2.9-1.3-5.8-1.3-8.7c0-2.9,0.5-5.8,1.4-8.7c1-2.9,2.4-5.6,4.4-8c2-2.4,4.5-4.4,7.4-5.9s6.5-2.3,10.5-2.3
		c4.2,0,7.8,0.8,10.7,2.3c2.9,1.5,5.3,3.5,7.1,5.8c1.8,2.4,3.1,5,3.9,7.8c0.8,2.8,1.2,5.5,1.2,8v5H841.1z M850.5,210.6
		c-1.9,0-3.7,0.6-5.4,1.8c-1.7,1.2-2.9,3.1-3.6,5.6h17.9c-0.3-2-1.2-3.8-2.7-5.2C855.1,211.3,853.1,210.6,850.5,210.6z"/>
	<path class="st1" d="M879.2,224.1c0-3.3,0.5-6.5,1.6-9.5c1.1-3,2.6-5.7,4.6-8c2-2.3,4.6-4.1,7.7-5.5c3.1-1.3,6.7-2,10.8-2
		c4.1,0,7.7,0.7,10.8,2c3.1,1.3,5.7,3.2,7.7,5.5c2,2.3,3.6,5,4.6,8c1.1,3,1.6,6.2,1.6,9.5c0,3.3-0.5,6.5-1.6,9.5
		c-1.1,3-2.6,5.7-4.6,8c-2,2.3-4.6,4.1-7.7,5.5s-6.7,2-10.8,2c-4.1,0-7.7-0.7-10.8-2c-3.1-1.3-5.7-3.2-7.7-5.5c-2-2.3-3.6-4.9-4.6-8
		C879.8,230.6,879.2,227.5,879.2,224.1z M894.4,224.1c0,3.4,0.8,6.2,2.3,8.3c1.5,2.1,3.9,3.2,7.2,3.2c3.3,0,5.7-1.1,7.2-3.2
		c1.5-2.1,2.3-4.9,2.3-8.3c0-3.4-0.8-6.2-2.3-8.3c-1.5-2.1-3.9-3.2-7.2-3.2c-3.3,0-5.7,1.1-7.2,3.2
		C895.2,217.9,894.4,220.7,894.4,224.1z"/>
	<path class="st1" d="M952,200v5.6c1.2-1.9,3-3.4,5.4-4.6c2.4-1.2,5-1.8,7.9-1.8c5.4,0,9.3,1.4,11.8,4.2c2.5,2.8,3.8,6.7,3.8,11.7
		v33.1h-15.2v-28.5c0-2-0.5-3.6-1.4-4.8c-0.9-1.1-2.2-1.7-3.9-1.7c-2.6,0-4.6,1.2-6.1,3.5c-1.5,2.3-2.2,5.8-2.2,10.4v21.2h-15.2V200
		H952z"/>
	<path class="st1" d="M1002.6,228.2c0.5,2.9,1.6,5.1,3.3,6.6c1.7,1.5,4.1,2.3,7.1,2.3c4,0,7-1.7,9.2-5.2l11.7,4.4
		c-2,3.8-4.7,6.8-8.2,9.2c-3.5,2.4-8.1,3.6-13.7,3.6c-4.2,0-7.8-0.8-10.8-2.3c-3-1.5-5.4-3.5-7.3-5.9c-1.9-2.4-3.3-5.1-4.1-8
		c-0.9-2.9-1.3-5.8-1.3-8.7c0-2.9,0.5-5.8,1.4-8.7c1-2.9,2.4-5.6,4.4-8c2-2.4,4.5-4.4,7.4-5.9c3-1.5,6.5-2.3,10.5-2.3
		c4.2,0,7.8,0.8,10.7,2.3c2.9,1.5,5.3,3.5,7.1,5.8c1.8,2.4,3.1,5,3.9,7.8c0.8,2.8,1.2,5.5,1.2,8v5H1002.6z M1012,210.6
		c-1.9,0-3.7,0.6-5.4,1.8c-1.7,1.2-2.9,3.1-3.6,5.6h17.9c-0.3-2-1.2-3.8-2.7-5.2C1016.7,211.3,1014.6,210.6,1012,210.6z"/>
	<path class="st1" d="M1058.5,199.2c3.6,0,6.7,0.7,9.3,2.2c2.5,1.5,4.6,3.4,6.1,5.8l-8.3,7.9c-2-2.8-4.4-4.2-7.1-4.2
		c-0.9,0-1.6,0.2-2.2,0.7c-0.6,0.5-0.9,1.1-0.9,2c0,0.9,0.4,1.7,1.3,2.4s2.2,1.4,4.2,2.1c2.3,0.8,4.4,1.5,6.2,2.3
		c1.9,0.8,3.4,1.7,4.7,2.8c1.3,1.1,2.3,2.4,3,3.9c0.7,1.6,1.1,3.5,1.1,5.8c0,2.2-0.4,4.2-1.2,6.2c-0.8,1.9-1.9,3.7-3.4,5.1
		c-1.5,1.5-3.3,2.6-5.4,3.5c-2.1,0.9-4.5,1.3-7.2,1.3c-2.7,0-5-0.4-7.1-1.1c-2.1-0.7-3.9-1.7-5.5-2.9c-1.6-1.2-3-2.6-4.1-4.2
		c-1.2-1.6-2.2-3.3-3-5l11.2-6.2c0.8,2.2,1.9,4,3.2,5.4c1.4,1.4,3.1,2.1,5.3,2.1c1.1,0,2-0.3,2.8-0.8c0.8-0.5,1.3-1.3,1.3-2.5
		c0-0.8-0.3-1.5-0.8-2.2c-0.6-0.6-1.3-1.1-2.3-1.6c-1-0.5-2-0.9-3.2-1.3c-1.2-0.4-2.5-0.9-3.8-1.5c-1.4-0.6-2.8-1.3-4-2.1
		c-1.3-0.8-2.4-1.8-3.3-2.9c-0.9-1.1-1.7-2.4-2.2-3.9c-0.6-1.5-0.8-3.2-0.8-5.1c0-1.9,0.4-3.6,1.1-5.3c0.7-1.7,1.8-3.2,3.2-4.5
		c1.4-1.3,3.1-2.3,5.1-3.1C1053.7,199.6,1056,199.2,1058.5,199.2z"/>
	<path class="st1" d="M1132.8,181.2v67.1h-15v-46.2l-11.9,7.3v-17.1l18.7-11.1H1132.8z"/>
	<path class="st1" d="M1167.7,180.4c4,0,7.6,0.8,10.7,2.3c3.1,1.6,5.7,3.8,7.8,6.8c2.1,2.9,3.8,6.5,4.9,10.8
		c1.1,4.2,1.7,9.1,1.7,14.4c0,5.4-0.6,10.2-1.7,14.4c-1.1,4.2-2.7,7.8-4.9,10.8c-2.1,2.9-4.7,5.2-7.8,6.8c-3.1,1.6-6.7,2.3-10.7,2.3
		c-4,0-7.6-0.8-10.7-2.3c-3.1-1.6-5.7-3.8-7.8-6.8c-2.1-2.9-3.8-6.5-4.9-10.8c-1.1-4.2-1.7-9.1-1.7-14.4c0-5.4,0.6-10.2,1.7-14.4
		c1.1-4.2,2.7-7.8,4.9-10.8c2.1-2.9,4.7-5.2,7.8-6.8C1160.2,181.2,1163.7,180.4,1167.7,180.4z M1167.7,194.2c-3.5,0-6.1,1.8-7.9,5.3
		c-1.8,3.5-2.7,8.6-2.7,15.2c0,6.6,0.9,11.6,2.7,15.2c1.8,3.5,4.4,5.3,7.9,5.3c3.5,0,6.1-1.8,7.9-5.3c1.8-3.5,2.7-8.6,2.7-15.2
		c0-6.6-0.9-11.6-2.7-15.2C1173.8,196,1171.2,194.2,1167.7,194.2z"/>
</g>
</svg>
