<?xml version="1.0" encoding="utf-8"?>
<!-- Generator: Adobe Illustrator 28.1.0, SVG Export Plug-In . SVG Version: 6.00 Build 0)  -->
<svg version="1.1" id="Capa_1" xmlns="http://www.w3.org/2000/svg" xmlns:xlink="http://www.w3.org/1999/xlink" x="0px" y="0px"
	 viewBox="0 0 936.1 528.5" style="enable-background:new 0 0 936.1 528.5;" xml:space="preserve">
<style type="text/css">
	.st0{fill:#020303;}
	.st1{fill:#48AD42;}
</style>
<g>
	<path class="st0" d="M851.6,2.4h37.7v228.1h-37.7V2.4z M936.1,410.1h-46.4v-46.3H852v46.3h-46.4v37.6H852v46.3h37.7v-46.3h46.4
		V410.1z M705.3,336.4c11.2-5.1,24.3-3.6,34.1,3.9c12.2,9.6,17.4,25.1,21.6,39.5c7.4,29.8,8.5,60.9,3.1,91.1
		c-1.4,8.9-6.7,19.2-16.5,20.4c-7.4,0.8-14-4.5-14.8-11.9c0,0,0,0,0,0v-0.2c-1.8-20.4,5.7-40.9,1-61.2c-1.3-6.6-8-12.4-14.9-10.8
		c-8.9,2.9-14.7,11.1-19.1,18.9c-9.1,17.2-14.3,36-20.2,54.4c-4,13.3-10.6,27.3-23.3,34.2c-21,11.4-50.8,9-65.8-10.9
		c-13-17.7-21.8-38.1-34-56.4c-3.2-4.1-7.7-10.4-13.8-8.2c-6,1.6-7.5,8.6-7.5,14c0.9,20.1,10.6,38.3,13.9,57.9
		c1.9,8-3.2,18.7-12.7,17.3c-8.9,1-14.2-7.5-17.2-14.5c-13.3-32.5-20.5-68.8-13-103.7c3.4-16.1,8.9-32.8,21.3-44.3
		c12.4-11.5,33.5-14,47.2-3c19.4,15.1,27.6,39.5,44,57.2c9,10,26.4,10.5,34.5-0.9C671,392.2,672.1,350.8,705.3,336.4L705.3,336.4
		L705.3,336.4z M275.2,451.8c0,6.3-0.8,12.1-2.4,17.3s-4,9.7-7.1,13.4c-3.2,3.7-7.1,6.6-11.8,8.7c-4.7,2.1-10.2,3.1-16.4,3.1
		c-4.2,0-8-0.9-11.7-2.7c-3.7-1.8-6.4-3.9-8.3-6.2v41h-20.3v-116h20.3v8.5c0.5-1.1,1.4-2.2,2.6-3.3c1.2-1.1,2.7-2.2,4.4-3.2
		c1.8-1,3.7-1.8,5.9-2.4c2.2-0.6,4.5-0.9,7-0.9c6.2,0,11.7,1,16.4,3.1c4.7,2.1,8.6,5,11.8,8.7c3.2,3.7,5.5,8.2,7.1,13.4
		C274.5,439.7,275.2,445.5,275.2,451.8z M253.9,451.8c0-8.2-1.9-14.4-5.6-18.8c-3.7-4.3-8.3-6.5-13.6-6.5s-9.9,2.2-13.5,6.5
		c-3.7,4.3-5.5,10.6-5.5,18.8c0,8.2,1.8,14.4,5.5,18.8s8.2,6.5,13.5,6.5s9.9-2.2,13.6-6.5C252.1,466.3,253.9,460.1,253.9,451.8z
		 M287.8,451.8c0-6,0.9-11.6,2.8-16.8c1.9-5.2,4.6-9.7,8.2-13.5c3.6-3.8,8-6.8,13.2-9c5.2-2.2,11.1-3.3,17.8-3.3s12.6,1.1,17.8,3.3
		c5.2,2.2,9.6,5.2,13.2,9c3.6,3.8,6.3,8.3,8.2,13.5c1.9,5.2,2.8,10.8,2.8,16.8s-0.9,11.6-2.8,16.8s-4.6,9.7-8.2,13.5
		c-3.6,3.8-8,6.8-13.2,9c-5.2,2.2-11.1,3.3-17.8,3.3s-12.6-1.1-17.8-3.3c-5.2-2.2-9.6-5.2-13.2-9c-3.6-3.8-6.3-8.3-8.2-13.5
		C288.7,463.4,287.8,457.8,287.8,451.8z M309.1,451.8c0,3.4,0.5,6.6,1.4,9.7c0.9,3,2.3,5.7,4,8c1.8,2.3,3.9,4.1,6.5,5.5
		c2.6,1.4,5.5,2.1,8.8,2.1c3.3,0,6.2-0.7,8.8-2.1c2.6-1.4,4.7-3.2,6.5-5.5c1.8-2.3,3.1-5,4-8c0.9-3,1.4-6.3,1.4-9.7
		c0-3.4-0.5-6.6-1.4-9.7c-0.9-3-2.3-5.7-4-8c-1.7-2.3-3.9-4.1-6.5-5.5c-2.6-1.4-5.5-2.1-8.8-2.1c-3.3,0-6.2,0.7-8.8,2.1
		c-2.6,1.4-4.7,3.2-6.5,5.5c-1.8,2.3-3.1,5-4,8S309.1,448.5,309.1,451.8z M386.5,493.1v-82.5h20.3V424c2.9-4.9,6.6-8.6,10.9-11.1
		c4.3-2.5,8.8-3.7,13.5-3.7c0.9,0,1.9,0.1,3,0.2s2.2,0.3,3.2,0.5v19.8c-2.5-1.5-5.3-2.3-8.5-2.3c-2.9,0-5.8,0.6-8.5,2
		c-2.7,1.3-5,3.4-7,6.2c-2,2.8-3.6,6.6-4.8,11.2c-1.2,4.6-1.8,10.3-1.8,16.9v29.3L386.5,493.1L386.5,493.1z"/>
	<g>
		<g>
			<polygon class="st1" points="482.3,37.3 482.3,33.6 465.9,33.6 465.9,49.1 469.8,49.1 469.8,43.6 480.7,43.6 480.7,40.3 
				469.8,40.3 469.8,37.3 			"/>
			<polygon class="st1" points="457,60.9 457,57.3 440.4,57.3 440.4,72.8 457.2,72.8 457.2,69.1 444.2,69.1 444.2,66.5 455.5,66.5 
				455.5,63.2 444.2,63.2 444.2,60.9 			"/>
			<polygon class="st1" points="465.9,72.7 469.8,72.7 469.8,67.3 480.7,67.3 480.7,63.9 469.8,63.9 469.8,61 482.3,61 482.3,57.3 
				465.9,57.3 			"/>
			<path class="st1" d="M449.9,40.8h-5.7v-3.6h5.9c1.6,0,2.2,0.6,2.2,1.7C452.4,40.1,451.8,40.8,449.9,40.8L449.9,40.8z M453,43.9
				c2.1-0.9,3.4-2.6,3.4-5c0-3.4-2-5.3-5.7-5.3h-10.3v15.5h3.8v-4.8h4.7l3.9,4.8h4.6L453,43.9z"/>
			<path class="st1" d="M492.8,24.9v-5.5c-20.2-7.8-42.6-7.8-62.8,0v5.4c9.9-4.2,20.6-6.4,31.4-6.4
				C472.2,18.4,482.9,20.6,492.8,24.9z"/>
			<path class="st1" d="M531.5,49c-0.6,2.5-1.3,4.9-2.2,7.3c7.8,12.6,12,27.1,11.9,42c0,44.1-35.7,79.9-79.8,79.9
				s-79.8-35.8-79.8-79.9c0-14.8,4.1-29.4,11.9-42c-0.9-2.4-1.6-4.8-2.2-7.3c-11,15-17,33.1-17,51.7c0,48.1,39,87.2,87.1,87.2
				c48.1,0,87.1-39.1,87.1-87.2C548.5,82.2,542.5,64,531.5,49z"/>
			<path class="st1" d="M507.7,64V4.1h11.9l0.2,38.5c0,15.6-5.9,23.4-12.9,29C507.4,69,507.7,66.5,507.7,64L507.7,64z M464.2,95.8
				v31c0,16.1,9.7,36.1,29.8,38.7c2.7-1.3,5.2-2.8,7.7-4.5c-9.1,0.7-29.3-9.8-29.3-37.9v-22.2c15.9-3,28.1-11.4,33.1-24.4
				c18.7-9.6,22.9-28.8,22.9-40.9V0h-29.6v62.1C498.7,81.8,482.9,94.4,464.2,95.8z"/>
			<path class="st1" d="M415.8,71.6c-7-5.6-12.9-13.4-12.9-29l0.2-38.5H415V64C415,66.5,415.3,69.1,415.8,71.6z M424,62.1V0h-29.6
				v35.6c0,12,4.1,31.3,22.9,40.9c5,12.9,17.2,21.4,33.1,24.4V123c0,28.2-20.2,38.6-29.3,37.9c2.5,1.7,5,3.1,7.7,4.5
				c20.1-2.6,29.8-22.6,29.8-38.7v-31C439.8,94.4,424,81.8,424,62.1z"/>
		</g>
		<g>
			<path class="st1" d="M37.7,211.6c3.8,0,6.7-1.3,8.7-3.8c2-2.5,3-6.2,3-11v-49.8h23.8v48.3c0,8.6-1.3,15.7-3.8,21.3
				c-2.5,5.5-6.3,9.7-11.5,12.4c-5.1,2.7-11.7,4.1-19.8,4.1H35c-6.2,0-11.6-0.8-16-2.3c-4.4-1.5-8-3.8-10.9-6.9
				c-2.8-3.1-4.9-7.1-6.2-12.1c-1.3-4.9-2-10.9-2-17.9V49.7c0-7,0.6-13,2-17.9c1.3-4.9,3.4-8.9,6.2-12.1c2.8-3.1,6.4-5.4,10.9-6.9
				c4.4-1.5,9.8-2.3,16-2.3h3c6,0,11.3,0.7,15.7,2.1c4.4,1.4,8.1,3.7,11,6.8c2.9,3.1,5.1,7.1,6.5,11.9c1.4,4.8,2.1,10.5,2.1,16.9
				v44.6H49.5V46.6c0-3.2-0.5-5.9-1.4-8.1c-0.9-2.2-2.2-3.9-3.9-5c-1.7-1.1-3.8-1.7-6.2-1.7h-2.4c-2.6,0-4.8,0.6-6.6,1.7
				c-1.8,1.1-3.2,2.8-4.1,5c-0.9,2.2-1.4,4.9-1.4,8.1v149.9c0,3.2,0.5,5.9,1.4,8.1c0.9,2.2,2.3,3.9,4.1,5.1s4,1.8,6.6,1.8
				L37.7,211.6L37.7,211.6z"/>
			<path class="st1" d="M115,230.9c-4.5-1.4-8.2-3.7-11.2-6.8c-2.9-3.1-5-7.1-6.3-11.9c-1.3-4.8-2-10.5-2-16.9V48.1
				c0-6.4,0.6-12.1,2-16.9c1.3-4.8,3.4-8.8,6.3-11.9c2.9-3.1,6.6-5.4,11.2-6.8c4.5-1.4,9.8-2.1,15.8-2.1h3.3c6,0,11.3,0.7,15.8,2.1
				c4.5,1.4,8.2,3.7,11.2,6.8c2.9,3.1,5.1,7.1,6.5,11.9c1.4,4.8,2.1,10.5,2.1,16.9v147.2c0,6.4-0.7,12.1-2.1,16.9
				c-1.4,4.8-3.6,8.7-6.5,11.8c-2.9,3-6.6,5.3-11,6.8c-4.4,1.5-9.7,2.3-15.7,2.3h-3.6C124.8,233,119.5,232.3,115,230.9z M124.6,33.5
				c-1.9,1.1-3.3,2.8-4.2,5c-0.9,2.2-1.4,4.9-1.4,8.1v150.2c0,3.2,0.5,5.9,1.4,8.1c0.9,2.2,2.3,3.9,4.2,5c1.9,1.1,4.2,1.7,6.8,1.7
				h2.4c2.6,0,4.8-0.6,6.6-1.7c1.8-1.1,3.2-2.8,4.1-5c0.9-2.2,1.4-4.9,1.4-8.1V46.6c0-3.2-0.5-5.9-1.4-8.1c-0.9-2.2-2.3-3.9-4.1-5
				c-1.8-1.1-4-1.7-6.6-1.7h-2.4C128.8,31.9,126.5,32.4,124.6,33.5z"/>
			<path class="st1" d="M227.5,148h-10.6v82.3h-23.5V13.2H229c12.7,0,21.6,2.6,26.8,7.8c5.2,5.2,7.8,14.3,7.8,27.1v63.6
				c0,12.7-2.8,21.9-8.4,27.6C249.6,145.1,240.3,148,227.5,148z M228.7,35.5h-11.8v90.2h10.6c4.8,0,8.2-1,10.1-2.9
				c1.9-1.9,2.9-5.3,2.9-10.1V48.4c0-4.8-0.8-8.2-2.4-10.1C236.4,36.4,233.3,35.5,228.7,35.5z"/>
			<path class="st1" d="M332.5,230.3h25L339.5,13.2h-43.4l-17.8,217.2h23.5l3.3-42.8h24.2L332.5,230.3z M306.7,165.5l8.3-108.9
				L316,31h2.4l0.9,25.6l8.3,108.9H306.7z"/>
		</g>
		<g>
			<path class="st1" d="M412,230.3v-24.5h14.5c3,0,5.6,0.5,7.7,1.4c2.1,0.9,3.7,2.3,4.8,4.1c1.1,1.8,1.6,4,1.6,6.6v0.5
				c0,2.6-0.5,4.8-1.6,6.6c-1.1,1.8-2.7,3.1-4.8,4.1c-2.1,0.9-4.7,1.4-7.7,1.4L412,230.3L412,230.3z M418.1,225.1h7.8
				c1.9,0,3.5-0.3,4.8-0.8c1.3-0.5,2.3-1.3,2.9-2.3c0.7-1,1-2.2,1-3.7v-0.5c0-1.5-0.3-2.7-1-3.7c-0.7-1-1.6-1.8-2.9-2.3
				c-1.3-0.5-2.9-0.8-4.8-0.8h-7.8V225.1z"/>
			<path class="st1" d="M450.6,205.8H477v5.2h-20.2v4.2h17.7v5h-17.7v4.8h20.4v5.2h-26.6L450.6,205.8L450.6,205.8z"/>
			<path class="st1" d="M490.1,205.8h6.1v19.3h19.3v5.2h-25.4V205.8z"/>
		</g>
		<g>
			<path class="st1" d="M624.5,125.9c4.5-1.6,8.1-4,10.6-7.2c3.9-5,5.9-12.7,5.9-22.9V48.1c0-12.7-2.6-21.7-7.8-27
				c-5.2-5.3-14.2-8-26.8-8h-33.5v217.2h23.5V119.6h2.4l22.9,110.7h25.6L624.5,125.9z M605.1,111.8h-8.7V35.5h9.3
				c4.6,0,7.7,0.9,9.3,2.7c1.6,1.8,2.4,5.1,2.4,10v51c0,4.8-0.9,8.1-2.7,10C612.9,110.9,609.7,111.8,605.1,111.8z"/>
			<path class="st1" d="M664.7,13.2h55.2v22h-31.7v64.5h24.4v20.5h-24.4v88.1h33.5v22h-57L664.7,13.2L664.7,13.2z"/>
			<polygon class="st1" points="818.2,13.2 794.3,13.2 782,110.6 780.5,132.9 778.1,132.9 776.5,110.6 763.9,13.2 739.7,13.2 
				766.6,179.6 766.6,230.3 791.3,230.3 791.3,179.6 			"/>
		</g>
	</g>
</g>
</svg>
