<?xml version="1.0" encoding="utf-8"?>
<!-- Generator: Adobe Illustrator 28.1.0, SVG Export Plug-In . SVG Version: 6.00 Build 0)  -->
<svg version="1.1" id="Capa_1" xmlns="http://www.w3.org/2000/svg" xmlns:xlink="http://www.w3.org/1999/xlink" x="0px" y="0px"
	 viewBox="0 0 24 24" style="enable-background:new 0 0 24 24;" xml:space="preserve">
<style type="text/css">
	.st0{fill:#020203;}
</style>
<g>
	<g>
		<g>
			<path class="st0" d="M11.6,6.6c0.6-0.1,1.2,0,1.6,0.4c0.6,0.5,0.9,1.3,1.1,2.1c0.4,1.6,0.5,3.3,0.2,5c-0.1,0.4-0.2,0.8-0.5,1.1
				c-0.3,0.2-0.8,0.2-1,0c-0.2-0.3-0.3-0.7-0.2-1c0.1-0.8,0.2-1.6,0.1-2.3c0-0.3-0.1-0.6-0.2-0.8c-0.2-0.3-0.5-0.4-0.8-0.2
				c-0.5,0.2-0.7,0.7-1,1.1c-0.5,1-0.8,2.2-1.2,3.3c-0.2,0.6-0.5,1.1-1,1.4c-0.6,0.4-1.3,0.5-2,0.5C5.8,17,5,16.4,4.6,15.7
				c-0.5-0.8-1-1.7-1.5-2.5c-0.1-0.2-0.3-0.5-0.5-0.7c-0.3-0.2-0.6,0-0.7,0.3c-0.1,0.3-0.1,0.6,0,1c0.1,0.8,0.5,1.6,0.7,2.5
				c0.1,0.3,0.1,0.7-0.1,0.9c-0.3,0.4-0.9,0.3-1.2,0c-0.3-0.4-0.4-0.8-0.6-1.2c-0.5-1.5-0.8-3.1-0.5-4.6c0.2-1,0.4-2,1.1-2.8
				C1.8,7.9,2.8,7.6,3.6,8C4,8.2,4.4,8.6,4.7,9c0.4,0.6,0.8,1.2,1.2,1.8c0.3,0.4,0.6,0.8,1,1c0.4,0.2,1,0.1,1.3-0.2
				c0.2-0.2,0.4-0.6,0.5-0.9c0.3-0.8,0.7-1.7,1-2.5C10.1,7.4,10.8,6.8,11.6,6.6z"/>
			<path class="st0" d="M19.4,8.3h2.1c0,0.9,0,1.7,0,2.6H24v2.1c-0.9,0-1.7,0-2.6,0c0,0.9,0,1.7,0,2.6h-2.1c0-0.9,0-1.7,0-2.6
				c-0.9,0-1.7,0-2.6,0c0-0.7,0-1.4,0-2.1h2.6C19.4,10,19.4,9.1,19.4,8.3z"/>
		</g>
	</g>
</g>
</svg>
